<svg width="65" height="71" viewBox="0 0 65 71" fill="none" xmlns="http://www.w3.org/2000/svg">
<path d="M58.8379 57.7232C58.8933 57.7597 58.9246 57.7984 58.9421 57.8293C56.0376 60.4002 52.622 62.5513 48.8265 64.1693C43.6767 66.3646 37.9876 67.5099 32.208 67.4999C26.4284 67.49 20.7449 66.3251 15.6058 64.1124C11.8191 62.4819 8.41461 60.3201 5.52297 57.7403C5.54055 57.7092 5.57232 57.6699 5.62874 57.633C5.68762 57.5944 5.78118 57.5582 5.94223 57.5774C6.11673 57.5982 6.32704 57.6836 6.50765 57.8477C9.392 60.4677 12.7683 62.6217 16.4817 64.2207C21.3874 66.3329 26.7694 67.4284 32.2122 67.4378C37.655 67.4471 43.0416 66.3701 47.9564 64.275C51.6785 62.6884 55.0656 60.545 57.9624 57.9337C58.1429 57.771 58.3526 57.6867 58.5264 57.6667C58.6868 57.6483 58.7796 57.6847 58.8379 57.7232Z" stroke="white" stroke-width="7"/>
<path d="M57.5 29C57.5 43.0833 46.0833 54.5 32 54.5C17.9167 54.5 6.5 43.0833 6.5 29C6.5 14.9167 17.9167 3.5 32 3.5C46.0833 3.5 57.5 14.9167 57.5 29Z" stroke="white" stroke-width="7"/>
</svg>
