<svg width="63" height="72" viewBox="0 0 63 72" fill="none" xmlns="http://www.w3.org/2000/svg">
<path d="M28.7669 0.0317078C22.9431 0.611613 17.9461 2.52407 13.5042 5.8431C11.8509 7.07694 9.0254 9.91478 7.8039 11.5558C4.83034 15.5658 2.96724 20.0323 2.22693 24.943C1.95549 26.7814 1.91847 31.0505 2.16524 32.7162C2.65878 36.0722 3.5965 39.1321 4.96606 41.8959C6.47135 44.9312 8.19873 47.3372 10.6294 49.7432C15.1699 54.2714 21.3268 57.2079 27.8291 57.9482C29.7416 58.1703 34.06 58.0469 35.9231 57.7138C41.8826 56.6527 46.9413 54.074 51.2721 49.8666C54.7762 46.4612 57.1205 42.735 58.6258 38.1451C60.2051 33.3824 60.5136 28.2497 59.5389 23.339C58.4284 17.762 55.7263 12.6909 51.7286 8.6686C47.1388 4.05403 41.6605 1.26555 35.1828 0.253799C34.0107 0.0810616 29.8033 -0.0669996 28.7669 0.0317078ZM33.3691 7.1263C36.1206 7.42242 38.3291 8.07635 40.8585 9.34721C42.956 10.3836 44.4983 11.4694 46.164 13.0611C50.2851 16.9847 52.58 21.809 52.9995 27.4107C53.5424 34.4682 50.6182 41.4024 45.2263 45.9183C42.4008 48.2872 39.1065 49.8789 35.3679 50.6932C34.2204 50.94 33.7269 50.9647 31.0495 50.9647C28.372 50.9647 27.8785 50.94 26.731 50.6932C22.2892 49.7308 18.7851 47.8677 15.6388 44.8202C7.53245 36.9359 6.73045 24.2027 13.7757 15.319C17.4772 10.6551 22.7581 7.79257 29.0136 7.06461C29.865 6.9659 32.2586 7.00291 33.3691 7.1263Z" fill="white"/>
<path d="M4.047 54.2464C3.25734 54.3822 2.27027 54.9374 1.78907 55.542C1.41892 55.9985 0 58.4292 0 58.5896C0 58.7376 3.29435 61.5755 4.63924 62.5872C8.43947 65.4497 13.3748 67.8804 18.2238 69.2993C24.6768 71.1871 31.7467 71.6313 38.4958 70.5825C47.0587 69.2499 54.5481 65.7212 60.9394 60.0085L62.42 58.6883L61.6797 57.3557C61.2602 56.6277 60.6679 55.7764 60.3595 55.4556C59.3724 54.4315 58.0275 54.0614 56.6209 54.4192C55.7573 54.6413 55.128 55.0361 53.5487 56.3563C49.5634 59.6877 44.1838 62.2047 38.6809 63.3152C35.0164 64.0555 30.4142 64.2529 26.9101 63.821C20.0006 62.982 13.5846 60.2923 8.69858 56.2082C7.14394 54.9004 6.84782 54.703 6.1692 54.4562C5.44124 54.1971 4.75029 54.1354 4.047 54.2464Z" fill="white"/>
</svg>
