<svg viewBox="0 0 514 308" fill="none" xmlns="http://www.w3.org/2000/svg">
<path d="M22.5715 24C24.9449 24 27.265 23.2962 29.2384 21.9776C31.2118 20.6591 32.7498 18.7849 33.6581 16.5922C34.5663 14.3995 34.804 11.9867 34.341 9.65892C33.8779 7.33115 32.735 5.19295 31.0568 3.51472C29.3786 1.83649 27.2404 0.693605 24.9126 0.230582C22.5848 -0.232441 20.172 0.0051994 17.9793 0.913451C15.7866 1.8217 13.9125 3.35977 12.5939 5.33316C11.2753 7.30655 10.5715 9.62663 10.5715 12C10.5715 15.1826 11.8358 18.2348 14.0863 20.4853C16.3367 22.7357 19.3889 24 22.5715 24ZM22.5715 3.42858C24.2668 3.42858 25.924 3.93128 27.3336 4.87312C28.7431 5.81496 29.8417 7.15364 30.4905 8.71986C31.1392 10.2861 31.309 12.0095 30.9783 13.6722C30.6475 15.3349 29.8312 16.8622 28.6324 18.0609C27.4337 19.2597 25.9064 20.076 24.2437 20.4067C22.581 20.7375 20.8576 20.5677 19.2914 19.919C17.7252 19.2702 16.3865 18.1716 15.4447 16.762C14.5028 15.3525 14.0001 13.6953 14.0001 12C14.0001 9.72672 14.9032 7.54654 16.5106 5.93909C18.1181 4.33163 20.2982 3.42858 22.5715 3.42858V3.42858Z" fill="#2D2C2C"/>
<path d="M24.2857 27.4285H20.8571C15.8559 27.4285 11.0595 29.4152 7.52313 32.9516C3.98673 36.488 2 41.2844 2 46.2856C2 46.7403 2.18061 47.1763 2.5021 47.4978C2.82359 47.8193 3.25963 47.9999 3.71429 47.9999H41.4286C41.8832 47.9999 42.3193 47.8193 42.6408 47.4978C42.9622 47.1763 43.1429 46.7403 43.1429 46.2856C43.1429 41.2844 41.1561 36.488 37.6197 32.9516C34.0833 29.4152 29.2869 27.4285 24.2857 27.4285ZM5.53143 44.5713C5.95296 40.801 7.74888 37.3182 10.576 34.7883C13.4032 32.2584 17.0633 30.8588 20.8571 30.857H24.2857C28.0795 30.8588 31.7397 32.2584 34.5668 34.7883C37.394 37.3182 39.1899 40.801 39.6114 44.5713H5.53143Z" fill="#2D2C2C"/>
<path d="M205.572 257C207.945 257 210.265 256.296 212.238 254.978C214.212 253.659 215.75 251.785 216.658 249.592C217.566 247.399 217.804 244.987 217.341 242.659C216.878 240.331 215.735 238.193 214.057 236.515C212.379 234.836 210.24 233.694 207.913 233.231C205.585 232.768 203.172 233.005 200.979 233.913C198.787 234.822 196.912 236.36 195.594 238.333C194.275 240.307 193.572 242.627 193.572 245C193.572 248.183 194.836 251.235 197.086 253.485C199.337 255.736 202.389 257 205.572 257ZM205.572 236.429C207.267 236.429 208.924 236.931 210.334 237.873C211.743 238.815 212.842 240.154 213.49 241.72C214.139 243.286 214.309 245.01 213.978 246.672C213.648 248.335 212.831 249.862 211.632 251.061C210.434 252.26 208.906 253.076 207.244 253.407C205.581 253.737 203.858 253.568 202.291 252.919C200.725 252.27 199.386 251.172 198.445 249.762C197.503 248.352 197 246.695 197 245C197 242.727 197.903 240.547 199.511 238.939C201.118 237.332 203.298 236.429 205.572 236.429V236.429Z" fill="#2D2C2C"/>
<path d="M207.286 260.428H203.857C198.856 260.428 194.06 262.415 190.523 265.952C186.987 269.488 185 274.284 185 279.286C185 279.74 185.181 280.176 185.502 280.498C185.824 280.819 186.26 281 186.714 281H224.429C224.883 281 225.319 280.819 225.641 280.498C225.962 280.176 226.143 279.74 226.143 279.286C226.143 274.284 224.156 269.488 220.62 265.952C217.083 262.415 212.287 260.428 207.286 260.428ZM188.531 277.571C188.953 273.801 190.749 270.318 193.576 267.788C196.403 265.258 200.063 263.859 203.857 263.857H207.286C211.08 263.859 214.74 265.258 217.567 267.788C220.394 270.318 222.19 273.801 222.611 277.571H188.531Z" fill="#2D2C2C"/>
<path d="M176.031 66.4994C176.86 66.4823 177.517 65.797 177.5 64.9687L177.22 51.4716C177.203 50.6433 176.518 49.9858 175.69 50.003C174.861 50.0201 174.204 50.7054 174.221 51.5337L174.47 63.5311L162.472 63.7795C161.644 63.7967 160.986 64.482 161.003 65.3103C161.021 66.1385 161.706 66.796 162.534 66.7789L176.031 66.4994ZM52.2502 28.4788C81.1342 23.5972 101.989 23.6619 120.478 29.5465C138.97 35.4321 155.277 47.1962 174.962 66.0821L177.039 63.9174C157.233 44.9147 140.528 32.7796 121.388 26.6878C102.244 20.5949 80.8439 20.6038 51.7503 25.5207L52.2502 28.4788Z" fill="#2D2C2C"/>
<path d="M313.092 188.443C313.889 188.669 314.718 188.206 314.943 187.408L318.62 174.419C318.845 173.622 318.382 172.793 317.585 172.567C316.788 172.341 315.959 172.805 315.733 173.602L312.465 185.148L300.919 181.88C300.122 181.655 299.293 182.118 299.067 182.915C298.841 183.712 299.305 184.541 300.102 184.767L313.092 188.443ZM244.337 115.347C263.157 124.61 275.361 134.241 285.218 145.732C295.109 157.262 302.675 170.703 312.191 187.732L314.81 186.268C305.325 169.296 297.616 155.578 287.495 143.778C277.339 131.939 264.794 122.072 245.662 112.655L244.337 115.347Z" fill="#2D2C2C"/>
<path d="M453.788 188.985C454.608 189.102 455.368 188.533 455.485 187.712L457.397 174.349C457.514 173.529 456.945 172.769 456.125 172.651C455.305 172.534 454.545 173.104 454.427 173.924L452.728 185.803L440.849 184.103C440.029 183.986 439.269 184.555 439.151 185.375C439.034 186.195 439.604 186.955 440.424 187.073L453.788 188.985ZM246.687 101.488C299.917 94.7853 336.032 96.1217 366.489 109.221C396.947 122.321 421.976 147.282 452.8 188.4L455.2 186.6C424.307 145.389 398.886 119.889 367.674 106.465C336.46 93.0402 299.683 91.7911 246.312 98.5115L246.687 101.488Z" fill="#2D2C2C"/>
<path d="M7.20312 67.8516H7.13281C6.53385 68.7214 5.63802 69.1562 4.44531 69.1562C3.32552 69.1562 2.45312 68.7734 1.82812 68.0078C1.20833 67.2422 0.898438 66.1536 0.898438 64.7422C0.898438 63.3307 1.21094 62.2344 1.83594 61.4531C2.46094 60.6719 3.33073 60.2812 4.44531 60.2812C5.60677 60.2812 6.4974 60.7031 7.11719 61.5469H7.21875L7.16406 60.9297L7.13281 60.3281V56.8438H8.42969V69H7.375L7.20312 67.8516ZM4.60938 68.0703C5.49479 68.0703 6.13542 67.8307 6.53125 67.3516C6.93229 66.8672 7.13281 66.0885 7.13281 65.0156V64.7422C7.13281 63.5286 6.92969 62.6641 6.52344 62.1484C6.1224 61.6276 5.47917 61.3672 4.59375 61.3672C3.83333 61.3672 3.25 61.6641 2.84375 62.2578C2.44271 62.8464 2.24219 63.6797 2.24219 64.7578C2.24219 65.8516 2.44271 66.6771 2.84375 67.2344C3.24479 67.7917 3.83333 68.0703 4.60938 68.0703ZM18.5781 64.7109C18.5781 66.1068 18.2266 67.1979 17.5234 67.9844C16.8203 68.7656 15.849 69.1562 14.6094 69.1562C13.8438 69.1562 13.1641 68.9766 12.5703 68.6172C11.9766 68.2578 11.5182 67.7422 11.1953 67.0703C10.8724 66.3984 10.7109 65.612 10.7109 64.7109C10.7109 63.3151 11.0599 62.2292 11.7578 61.4531C12.4557 60.6719 13.4245 60.2812 14.6641 60.2812C15.862 60.2812 16.8125 60.6797 17.5156 61.4766C18.224 62.2734 18.5781 63.3516 18.5781 64.7109ZM12.0547 64.7109C12.0547 65.8047 12.2734 66.638 12.7109 67.2109C13.1484 67.7839 13.7917 68.0703 14.6406 68.0703C15.4896 68.0703 16.1328 67.7865 16.5703 67.2188C17.013 66.6458 17.2344 65.8099 17.2344 64.7109C17.2344 63.6224 17.013 62.7969 16.5703 62.2344C16.1328 61.6667 15.4844 61.3828 14.625 61.3828C13.776 61.3828 13.1354 61.6615 12.7031 62.2188C12.2708 62.776 12.0547 63.6068 12.0547 64.7109ZM26.7188 69V63.4609C26.7188 62.763 26.5599 62.2422 26.2422 61.8984C25.9245 61.5547 25.4271 61.3828 24.75 61.3828C23.8542 61.3828 23.1979 61.625 22.7812 62.1094C22.3646 62.5938 22.1562 63.3932 22.1562 64.5078V69H20.8594V60.4375H21.9141L22.125 61.6094H22.1875C22.4531 61.1875 22.8255 60.862 23.3047 60.6328C23.7839 60.3984 24.3177 60.2812 24.9062 60.2812C25.9375 60.2812 26.7135 60.5312 27.2344 61.0312C27.7552 61.526 28.0156 62.3203 28.0156 63.4141V69H26.7188ZM38.0781 64.7109C38.0781 66.1068 37.7266 67.1979 37.0234 67.9844C36.3203 68.7656 35.349 69.1562 34.1094 69.1562C33.3438 69.1562 32.6641 68.9766 32.0703 68.6172C31.4766 68.2578 31.0182 67.7422 30.6953 67.0703C30.3724 66.3984 30.2109 65.612 30.2109 64.7109C30.2109 63.3151 30.5599 62.2292 31.2578 61.4531C31.9557 60.6719 32.9245 60.2812 34.1641 60.2812C35.362 60.2812 36.3125 60.6797 37.0156 61.4766C37.724 62.2734 38.0781 63.3516 38.0781 64.7109ZM31.5547 64.7109C31.5547 65.8047 31.7734 66.638 32.2109 67.2109C32.6484 67.7839 33.2917 68.0703 34.1406 68.0703C34.9896 68.0703 35.6328 67.7865 36.0703 67.2188C36.513 66.6458 36.7344 65.8099 36.7344 64.7109C36.7344 63.6224 36.513 62.7969 36.0703 62.2344C35.6328 61.6667 34.9844 61.3828 34.125 61.3828C33.276 61.3828 32.6354 61.6615 32.2031 62.2188C31.7708 62.776 31.5547 63.6068 31.5547 64.7109ZM44.2656 60.2812C44.6458 60.2812 44.987 60.3125 45.2891 60.375L45.1094 61.5781C44.7552 61.5 44.4427 61.4609 44.1719 61.4609C43.4792 61.4609 42.8854 61.7422 42.3906 62.3047C41.901 62.8672 41.6562 63.5677 41.6562 64.4062V69H40.3594V60.4375H41.4297L41.5781 62.0234H41.6406C41.9583 61.4661 42.3411 61.0365 42.7891 60.7344C43.237 60.4323 43.7292 60.2812 44.2656 60.2812Z" fill="#2D2C2C"/>
<path d="M191.594 294.438V299.992C191.594 300.69 191.753 301.211 192.07 301.555C192.388 301.898 192.885 302.07 193.562 302.07C194.458 302.07 195.112 301.826 195.523 301.336C195.94 300.846 196.148 300.047 196.148 298.938V294.438H197.445V303H196.375L196.188 301.852H196.117C195.852 302.273 195.482 302.596 195.008 302.82C194.539 303.044 194.003 303.156 193.398 303.156C192.357 303.156 191.576 302.909 191.055 302.414C190.539 301.919 190.281 301.128 190.281 300.039V294.438H191.594ZM205.727 300.664C205.727 301.461 205.43 302.076 204.836 302.508C204.242 302.94 203.409 303.156 202.336 303.156C201.201 303.156 200.315 302.977 199.68 302.617V301.414C200.091 301.622 200.531 301.786 201 301.906C201.474 302.026 201.93 302.086 202.367 302.086C203.044 302.086 203.565 301.979 203.93 301.766C204.294 301.547 204.477 301.216 204.477 300.773C204.477 300.44 204.331 300.156 204.039 299.922C203.753 299.682 203.19 299.401 202.352 299.078C201.555 298.781 200.987 298.523 200.648 298.305C200.315 298.081 200.065 297.828 199.898 297.547C199.737 297.266 199.656 296.93 199.656 296.539C199.656 295.841 199.94 295.292 200.508 294.891C201.076 294.484 201.854 294.281 202.844 294.281C203.766 294.281 204.667 294.469 205.547 294.844L205.086 295.898C204.227 295.544 203.448 295.367 202.75 295.367C202.135 295.367 201.672 295.464 201.359 295.656C201.047 295.849 200.891 296.115 200.891 296.453C200.891 296.682 200.948 296.878 201.062 297.039C201.182 297.201 201.372 297.354 201.633 297.5C201.893 297.646 202.393 297.857 203.133 298.133C204.148 298.503 204.833 298.875 205.188 299.25C205.547 299.625 205.727 300.096 205.727 300.664ZM211.461 303.156C210.195 303.156 209.195 302.771 208.461 302C207.732 301.229 207.367 300.159 207.367 298.789C207.367 297.409 207.706 296.312 208.383 295.5C209.065 294.688 209.979 294.281 211.125 294.281C212.198 294.281 213.047 294.635 213.672 295.344C214.297 296.047 214.609 296.977 214.609 298.133V298.953H208.711C208.737 299.958 208.99 300.721 209.469 301.242C209.953 301.763 210.633 302.023 211.508 302.023C212.43 302.023 213.341 301.831 214.242 301.445V302.602C213.784 302.799 213.349 302.94 212.938 303.023C212.531 303.112 212.039 303.156 211.461 303.156ZM211.109 295.367C210.422 295.367 209.872 295.591 209.461 296.039C209.055 296.487 208.815 297.107 208.742 297.898H213.219C213.219 297.081 213.036 296.456 212.672 296.023C212.307 295.586 211.786 295.367 211.109 295.367ZM220.734 294.281C221.115 294.281 221.456 294.312 221.758 294.375L221.578 295.578C221.224 295.5 220.911 295.461 220.641 295.461C219.948 295.461 219.354 295.742 218.859 296.305C218.37 296.867 218.125 297.568 218.125 298.406V303H216.828V294.438H217.898L218.047 296.023H218.109C218.427 295.466 218.81 295.036 219.258 294.734C219.706 294.432 220.198 294.281 220.734 294.281Z" fill="#2D2C2C"/>
<path d="M109.812 16.474C109.614 17.1539 109.194 17.6418 108.555 17.9378C107.916 18.2288 107.123 18.2981 106.174 18.1458L105.666 19.8855L104.698 19.6029L105.187 17.9306C104.627 17.767 104.097 17.5661 103.597 17.3277C103.098 17.0844 102.704 16.8363 102.415 16.5834L102.756 15.4136C103.117 15.7198 103.55 16.0118 104.055 16.2895C104.566 16.5637 105.044 16.7658 105.489 16.8958L106.453 13.5962C105.523 12.9718 104.914 12.384 104.625 11.8329C104.34 11.2832 104.297 10.6683 104.496 9.98844C104.687 9.33352 105.097 8.86986 105.724 8.59743C106.357 8.32647 107.104 8.26796 107.965 8.4219L108.364 7.05708L109.331 7.33971L108.937 8.68953C109.849 8.98328 110.683 9.42751 111.437 10.0222L110.76 10.8907C110.101 10.3781 109.395 9.98182 108.641 9.70189L107.69 12.9565C108.402 13.4357 108.918 13.8523 109.238 14.2062C109.559 14.5551 109.767 14.9116 109.861 15.2756C109.957 15.6346 109.941 16.034 109.812 16.474ZM108.509 16.199C108.614 15.8391 108.586 15.5162 108.426 15.2305C108.272 14.9413 107.907 14.5932 107.331 14.1863L106.479 17.1034C107.607 17.2704 108.284 16.9689 108.509 16.199ZM105.768 10.3437C105.657 10.7237 105.68 11.0615 105.838 11.3572C105.996 11.6529 106.322 11.9843 106.817 12.3514L107.665 9.44926C107.147 9.38465 106.726 9.43258 106.402 9.59306C106.08 9.74853 105.868 9.99875 105.768 10.3437ZM115.21 21.7055L113.995 21.3506L116.278 13.5366C116.468 12.8867 116.668 12.2776 116.877 11.7094C116.742 11.7837 116.592 11.8594 116.429 11.9364C116.265 12.0134 115.528 12.327 114.217 12.8773L113.806 11.8296L117.364 10.4353L118.413 10.742L115.21 21.7055ZM128.26 19.5521C127.706 21.4469 126.993 22.774 126.12 23.5336C125.252 24.2947 124.203 24.4956 122.973 24.1363C121.793 23.7915 121.035 23.0519 120.699 21.9174C120.365 20.7779 120.468 19.2832 121.008 17.4335C121.566 15.5237 122.278 14.1933 123.143 13.4423C124.008 12.6912 125.05 12.4939 126.27 12.8503C127.46 13.1979 128.222 13.944 128.555 15.0885C128.893 16.2345 128.794 17.7224 128.26 19.5521ZM122.268 17.8016C121.802 19.3963 121.65 20.6135 121.812 21.4529C121.975 22.2874 122.466 22.8244 123.286 23.0639C124.116 23.3064 124.823 23.1142 125.408 22.4874C125.999 21.857 126.525 20.7544 126.985 19.1797C127.445 17.6049 127.594 16.3977 127.432 15.5583C127.277 14.7153 126.785 14.1726 125.955 13.9301C125.135 13.6906 124.432 13.8785 123.845 14.4938C123.26 15.1042 122.734 16.2068 122.268 17.8016ZM137.049 22.1199C136.495 24.0146 135.782 25.3418 134.909 26.1014C134.041 26.8625 132.992 27.0633 131.762 26.704C130.582 26.3593 129.824 25.6197 129.488 24.4852C129.154 23.3456 129.257 21.851 129.797 20.0012C130.355 18.0915 131.067 16.7611 131.932 16.01C132.797 15.259 133.839 15.0616 135.059 15.418C136.249 15.7657 137.01 16.5117 137.343 17.6563C137.681 18.8022 137.583 20.2901 137.049 22.1199ZM131.057 20.3693C130.591 21.9641 130.439 23.1812 130.6 24.0207C130.764 24.8551 131.255 25.3921 132.075 25.6317C132.905 25.8741 133.612 25.682 134.197 25.0551C134.788 24.4248 135.314 23.3222 135.774 21.7474C136.234 20.1726 136.383 18.9655 136.221 18.1261C136.066 17.2831 135.574 16.7403 134.744 16.4979C133.924 16.2583 133.22 16.4462 132.634 17.0616C132.048 17.672 131.523 18.7745 131.057 20.3693Z" fill="#1A980F"/>
<path d="M372.134 100.711C371.803 101.337 371.294 101.731 370.608 101.892C369.924 102.048 369.132 101.956 368.234 101.616L367.386 103.218L366.495 102.746L367.31 101.206C366.795 100.933 366.316 100.63 365.874 100.296C365.435 99.9568 365.099 99.6344 364.866 99.3284L365.437 98.2514C365.728 98.624 366.094 98.9972 366.532 99.3709C366.978 99.7425 367.405 100.037 367.815 100.254L369.424 97.216C368.639 96.4171 368.16 95.7185 367.988 95.1204C367.82 94.5247 367.902 93.9138 368.233 93.2879C368.553 92.6849 369.047 92.3132 369.717 92.1728C370.391 92.0348 371.134 92.128 371.947 92.4522L372.612 91.1957L373.503 91.6673L372.845 92.9101C373.68 93.3816 374.406 93.9846 375.025 94.719L374.187 95.4333C373.645 94.7985 373.033 94.2681 372.351 93.8421L370.764 96.8384C371.365 97.4513 371.786 97.9632 372.028 98.3743C372.273 98.7808 372.405 99.1718 372.424 99.5473C372.445 99.9183 372.349 100.306 372.134 100.711ZM370.913 100.179C371.089 99.8481 371.127 99.5263 371.027 99.2141C370.934 98.8997 370.647 98.4852 370.165 97.9707L368.742 100.656C369.814 101.047 370.538 100.888 370.913 100.179ZM369.407 93.892C369.222 94.2418 369.177 94.5774 369.272 94.8988C369.367 95.2202 369.62 95.6106 370.031 96.0699L371.446 93.398C370.951 93.2304 370.529 93.1925 370.18 93.2845C369.833 93.3719 369.576 93.5744 369.407 93.892ZM378.542 100.18C379.606 100.743 380.301 101.45 380.628 102.301C380.962 103.15 380.887 104.032 380.402 104.948C379.848 105.993 379.081 106.636 378.099 106.876C377.122 107.119 376.049 106.931 374.88 106.311C373.743 105.709 372.971 105.068 372.566 104.387L373.151 103.283C373.363 103.661 373.677 104.036 374.092 104.409C374.51 104.778 374.951 105.085 375.416 105.331C376.226 105.76 376.956 105.902 377.604 105.757C378.258 105.613 378.776 105.181 379.159 104.458C379.905 103.05 379.415 101.888 377.689 100.974C377.251 100.743 376.631 100.5 375.829 100.246L375.436 99.5515L378.317 95.0303L383.336 97.6885L382.777 98.7448L378.738 96.6058L376.877 99.5014C377.463 99.6758 378.018 99.902 378.542 100.18ZM389.584 107.442C388.66 109.186 387.694 110.343 386.686 110.911C385.682 111.482 384.614 111.467 383.482 110.867C382.396 110.292 381.802 109.415 381.702 108.236C381.604 107.052 382.006 105.609 382.908 103.906C383.839 102.148 384.804 100.988 385.802 100.427C386.801 99.8654 387.862 99.8821 388.985 100.477C390.08 101.057 390.676 101.941 390.772 103.129C390.872 104.32 390.476 105.757 389.584 107.442ZM384.067 104.521C383.29 105.989 382.896 107.15 382.885 108.005C382.877 108.855 383.25 109.48 384.005 109.88C384.769 110.285 385.5 110.239 386.199 109.743C386.905 109.244 387.642 108.27 388.41 106.82C389.178 105.371 389.567 104.218 389.578 103.363C389.596 102.506 389.222 101.876 388.458 101.471C387.704 101.071 386.977 101.114 386.278 101.598C385.582 102.078 384.845 103.052 384.067 104.521Z" fill="#1A980F"/>
<path d="M287.653 132.981C287.129 133.458 286.517 133.656 285.817 133.575C285.12 133.49 284.407 133.136 283.677 132.512L282.336 133.731L281.658 132.986L282.946 131.814C282.554 131.382 282.206 130.934 281.903 130.47C281.605 130.003 281.398 129.586 281.282 129.219L282.184 128.399C282.332 128.848 282.549 129.323 282.835 129.823C283.129 130.323 283.432 130.745 283.744 131.088L286.286 128.774C285.818 127.757 285.604 126.937 285.644 126.316C285.688 125.699 285.972 125.152 286.496 124.675C287 124.216 287.591 124.033 288.269 124.128C288.95 124.227 289.618 124.566 290.273 125.146L291.324 124.189L292.003 124.934L290.963 125.881C291.588 126.607 292.068 127.421 292.402 128.321L291.371 128.71C291.076 127.929 290.68 127.223 290.183 126.591L287.675 128.873C288.033 129.653 288.256 130.277 288.344 130.746C288.437 131.211 288.428 131.624 288.319 131.984C288.214 132.34 287.992 132.672 287.653 132.981ZM286.684 132.067C286.961 131.815 287.106 131.525 287.118 131.197C287.137 130.87 287.007 130.382 286.727 129.735L284.48 131.781C285.356 132.511 286.091 132.607 286.684 132.067ZM287.396 125.641C287.103 125.907 286.947 126.208 286.928 126.543C286.908 126.877 287.014 127.33 287.245 127.901L289.481 125.866C289.073 125.541 288.688 125.363 288.328 125.331C287.972 125.296 287.662 125.399 287.396 125.641ZM297.523 136.062C296.984 136.552 296.405 136.802 295.785 136.809C295.169 136.821 294.55 136.602 293.93 136.152L293.884 136.194C294.416 136.949 294.658 137.648 294.609 138.291C294.56 138.934 294.255 139.512 293.692 140.023C292.887 140.756 292.013 141.041 291.069 140.879C290.13 140.713 289.192 140.116 288.256 139.087C287.849 138.64 287.51 138.199 287.24 137.762C286.969 137.332 286.758 136.865 286.609 136.361L287.522 135.53C287.674 136.06 287.889 136.576 288.168 137.076C288.454 137.576 288.765 138.011 289.102 138.38C290.431 139.84 291.667 140.05 292.811 139.009C293.836 138.076 293.615 136.805 292.15 135.195L291.393 134.363L292.219 133.611L292.987 134.454C293.586 135.113 294.206 135.504 294.845 135.626C295.488 135.745 296.068 135.569 296.584 135.099C296.996 134.724 297.19 134.287 297.166 133.788C297.145 133.293 296.914 132.803 296.472 132.318C296.135 131.948 295.768 131.645 295.37 131.409C294.972 131.172 294.447 130.967 293.795 130.793L294.001 129.718C294.59 129.816 295.166 130.02 295.73 130.331C296.302 130.641 296.816 131.047 297.271 131.548C298.018 132.369 298.409 133.178 298.446 133.976C298.486 134.77 298.178 135.466 297.523 136.062ZM301.793 145.222C300.333 146.551 299.032 147.312 297.891 147.505C296.754 147.702 295.754 147.327 294.892 146.379C294.064 145.47 293.803 144.444 294.108 143.3C294.416 142.154 295.283 140.932 296.708 139.635C298.179 138.296 299.48 137.531 300.61 137.341C301.74 137.151 302.732 137.526 303.588 138.465C304.422 139.382 304.683 140.416 304.371 141.566C304.062 142.72 303.203 143.939 301.793 145.222ZM297.591 140.605C296.363 141.724 295.598 142.683 295.299 143.484C295.003 144.281 295.143 144.995 295.718 145.627C296.3 146.267 297.004 146.471 297.829 146.241C298.662 146.011 299.685 145.344 300.899 144.24C302.112 143.135 302.869 142.183 303.168 141.382C303.475 140.582 303.337 139.862 302.756 139.223C302.181 138.591 301.482 138.385 300.661 138.604C299.843 138.82 298.82 139.487 297.591 140.605Z" fill="#1A980F"/>
<path d="M221.094 191.492C221.094 192.201 220.828 192.786 220.297 193.25C219.766 193.708 219.023 193.997 218.07 194.117V195.93H217.062V194.188C216.479 194.188 215.914 194.143 215.367 194.055C214.82 193.961 214.372 193.833 214.023 193.672V192.453C214.456 192.646 214.953 192.805 215.516 192.93C216.083 193.049 216.599 193.109 217.062 193.109V189.672C215.995 189.333 215.245 188.94 214.812 188.492C214.385 188.044 214.172 187.466 214.172 186.758C214.172 186.076 214.435 185.516 214.961 185.078C215.492 184.641 216.193 184.375 217.062 184.281V182.859H218.07V184.266C219.029 184.292 219.953 184.484 220.844 184.844L220.438 185.867C219.661 185.56 218.872 185.378 218.07 185.32V188.711C218.888 188.971 219.5 189.227 219.906 189.477C220.312 189.721 220.612 190.005 220.805 190.328C220.997 190.646 221.094 191.034 221.094 191.492ZM219.766 191.594C219.766 191.219 219.648 190.917 219.414 190.688C219.185 190.453 218.737 190.221 218.07 189.992V193.031C219.201 192.875 219.766 192.396 219.766 191.594ZM215.492 186.742C215.492 187.138 215.609 187.456 215.844 187.695C216.078 187.935 216.484 188.161 217.062 188.375V185.352C216.547 185.435 216.156 185.599 215.891 185.844C215.625 186.083 215.492 186.383 215.492 186.742ZM230.445 195H222.938V193.883L225.945 190.859C226.862 189.932 227.466 189.271 227.758 188.875C228.049 188.479 228.268 188.094 228.414 187.719C228.56 187.344 228.633 186.94 228.633 186.508C228.633 185.898 228.448 185.417 228.078 185.062C227.708 184.703 227.195 184.523 226.539 184.523C226.065 184.523 225.615 184.602 225.188 184.758C224.766 184.914 224.294 185.198 223.773 185.609L223.086 184.727C224.138 183.852 225.284 183.414 226.523 183.414C227.596 183.414 228.438 183.69 229.047 184.242C229.656 184.789 229.961 185.526 229.961 186.453C229.961 187.177 229.758 187.893 229.352 188.602C228.945 189.31 228.185 190.206 227.07 191.289L224.57 193.734V193.797H230.445V195ZM239.664 189.273C239.664 191.247 239.352 192.721 238.727 193.695C238.107 194.669 237.156 195.156 235.875 195.156C234.646 195.156 233.711 194.659 233.07 193.664C232.43 192.664 232.109 191.201 232.109 189.273C232.109 187.284 232.419 185.807 233.039 184.844C233.659 183.88 234.604 183.398 235.875 183.398C237.115 183.398 238.055 183.901 238.695 184.906C239.341 185.911 239.664 187.367 239.664 189.273ZM233.422 189.273C233.422 190.935 233.617 192.146 234.008 192.906C234.398 193.661 235.021 194.039 235.875 194.039C236.74 194.039 237.365 193.656 237.75 192.891C238.141 192.12 238.336 190.914 238.336 189.273C238.336 187.633 238.141 186.432 237.75 185.672C237.365 184.906 236.74 184.523 235.875 184.523C235.021 184.523 234.398 184.901 234.008 185.656C233.617 186.406 233.422 187.612 233.422 189.273Z" fill="#1A980F"/>
<path d="M171.594 144.438V149.992C171.594 150.69 171.753 151.211 172.07 151.555C172.388 151.898 172.885 152.07 173.562 152.07C174.458 152.07 175.112 151.826 175.523 151.336C175.94 150.846 176.148 150.047 176.148 148.938V144.438H177.445V153H176.375L176.188 151.852H176.117C175.852 152.273 175.482 152.596 175.008 152.82C174.539 153.044 174.003 153.156 173.398 153.156C172.357 153.156 171.576 152.909 171.055 152.414C170.539 151.919 170.281 151.128 170.281 150.039V144.438H171.594ZM185.727 150.664C185.727 151.461 185.43 152.076 184.836 152.508C184.242 152.94 183.409 153.156 182.336 153.156C181.201 153.156 180.315 152.977 179.68 152.617V151.414C180.091 151.622 180.531 151.786 181 151.906C181.474 152.026 181.93 152.086 182.367 152.086C183.044 152.086 183.565 151.979 183.93 151.766C184.294 151.547 184.477 151.216 184.477 150.773C184.477 150.44 184.331 150.156 184.039 149.922C183.753 149.682 183.19 149.401 182.352 149.078C181.555 148.781 180.987 148.523 180.648 148.305C180.315 148.081 180.065 147.828 179.898 147.547C179.737 147.266 179.656 146.93 179.656 146.539C179.656 145.841 179.94 145.292 180.508 144.891C181.076 144.484 181.854 144.281 182.844 144.281C183.766 144.281 184.667 144.469 185.547 144.844L185.086 145.898C184.227 145.544 183.448 145.367 182.75 145.367C182.135 145.367 181.672 145.464 181.359 145.656C181.047 145.849 180.891 146.115 180.891 146.453C180.891 146.682 180.948 146.878 181.062 147.039C181.182 147.201 181.372 147.354 181.633 147.5C181.893 147.646 182.393 147.857 183.133 148.133C184.148 148.503 184.833 148.875 185.188 149.25C185.547 149.625 185.727 150.096 185.727 150.664ZM191.461 153.156C190.195 153.156 189.195 152.771 188.461 152C187.732 151.229 187.367 150.159 187.367 148.789C187.367 147.409 187.706 146.312 188.383 145.5C189.065 144.688 189.979 144.281 191.125 144.281C192.198 144.281 193.047 144.635 193.672 145.344C194.297 146.047 194.609 146.977 194.609 148.133V148.953H188.711C188.737 149.958 188.99 150.721 189.469 151.242C189.953 151.763 190.633 152.023 191.508 152.023C192.43 152.023 193.341 151.831 194.242 151.445V152.602C193.784 152.799 193.349 152.94 192.938 153.023C192.531 153.112 192.039 153.156 191.461 153.156ZM191.109 145.367C190.422 145.367 189.872 145.591 189.461 146.039C189.055 146.487 188.815 147.107 188.742 147.898H193.219C193.219 147.081 193.036 146.456 192.672 146.023C192.307 145.586 191.786 145.367 191.109 145.367ZM200.734 144.281C201.115 144.281 201.456 144.312 201.758 144.375L201.578 145.578C201.224 145.5 200.911 145.461 200.641 145.461C199.948 145.461 199.354 145.742 198.859 146.305C198.37 146.867 198.125 147.568 198.125 148.406V153H196.828V144.438H197.898L198.047 146.023H198.109C198.427 145.466 198.81 145.036 199.258 144.734C199.706 144.432 200.198 144.281 200.734 144.281ZM207.695 141.578L203.438 153H202.141L206.398 141.578H207.695ZM213.141 144.281C213.521 144.281 213.862 144.312 214.164 144.375L213.984 145.578C213.63 145.5 213.318 145.461 213.047 145.461C212.354 145.461 211.76 145.742 211.266 146.305C210.776 146.867 210.531 147.568 210.531 148.406V153H209.234V144.438H210.305L210.453 146.023H210.516C210.833 145.466 211.216 145.036 211.664 144.734C212.112 144.432 212.604 144.281 213.141 144.281ZM219.383 153.156C218.117 153.156 217.117 152.771 216.383 152C215.654 151.229 215.289 150.159 215.289 148.789C215.289 147.409 215.628 146.312 216.305 145.5C216.987 144.688 217.901 144.281 219.047 144.281C220.12 144.281 220.969 144.635 221.594 145.344C222.219 146.047 222.531 146.977 222.531 148.133V148.953H216.633C216.659 149.958 216.911 150.721 217.391 151.242C217.875 151.763 218.555 152.023 219.43 152.023C220.352 152.023 221.263 151.831 222.164 151.445V152.602C221.706 152.799 221.271 152.94 220.859 153.023C220.453 153.112 219.961 153.156 219.383 153.156ZM219.031 145.367C218.344 145.367 217.794 145.591 217.383 146.039C216.977 146.487 216.737 147.107 216.664 147.898H221.141C221.141 147.081 220.958 146.456 220.594 146.023C220.229 145.586 219.708 145.367 219.031 145.367ZM228.734 153.156C228.177 153.156 227.667 153.055 227.203 152.852C226.745 152.643 226.359 152.326 226.047 151.898H225.953C226.016 152.398 226.047 152.872 226.047 153.32V156.844H224.75V144.438H225.805L225.984 145.609H226.047C226.38 145.141 226.768 144.802 227.211 144.594C227.654 144.385 228.161 144.281 228.734 144.281C229.87 144.281 230.745 144.669 231.359 145.445C231.979 146.221 232.289 147.31 232.289 148.711C232.289 150.117 231.974 151.211 231.344 151.992C230.719 152.768 229.849 153.156 228.734 153.156ZM228.547 145.383C227.672 145.383 227.039 145.625 226.648 146.109C226.258 146.594 226.057 147.365 226.047 148.422V148.711C226.047 149.914 226.247 150.776 226.648 151.297C227.049 151.812 227.693 152.07 228.578 152.07C229.318 152.07 229.896 151.771 230.312 151.172C230.734 150.573 230.945 149.747 230.945 148.695C230.945 147.628 230.734 146.81 230.312 146.242C229.896 145.669 229.307 145.383 228.547 145.383ZM241.953 148.711C241.953 150.107 241.602 151.198 240.898 151.984C240.195 152.766 239.224 153.156 237.984 153.156C237.219 153.156 236.539 152.977 235.945 152.617C235.352 152.258 234.893 151.742 234.57 151.07C234.247 150.398 234.086 149.612 234.086 148.711C234.086 147.315 234.435 146.229 235.133 145.453C235.831 144.672 236.799 144.281 238.039 144.281C239.237 144.281 240.188 144.68 240.891 145.477C241.599 146.273 241.953 147.352 241.953 148.711ZM235.43 148.711C235.43 149.805 235.648 150.638 236.086 151.211C236.523 151.784 237.167 152.07 238.016 152.07C238.865 152.07 239.508 151.786 239.945 151.219C240.388 150.646 240.609 149.81 240.609 148.711C240.609 147.622 240.388 146.797 239.945 146.234C239.508 145.667 238.859 145.383 238 145.383C237.151 145.383 236.51 145.661 236.078 146.219C235.646 146.776 235.43 147.607 235.43 148.711Z" fill="#2D2C2C"/>
<path d="M281.594 274.438V279.992C281.594 280.69 281.753 281.211 282.07 281.555C282.388 281.898 282.885 282.07 283.562 282.07C284.458 282.07 285.112 281.826 285.523 281.336C285.94 280.846 286.148 280.047 286.148 278.938V274.438H287.445V283H286.375L286.188 281.852H286.117C285.852 282.273 285.482 282.596 285.008 282.82C284.539 283.044 284.003 283.156 283.398 283.156C282.357 283.156 281.576 282.909 281.055 282.414C280.539 281.919 280.281 281.128 280.281 280.039V274.438H281.594ZM295.727 280.664C295.727 281.461 295.43 282.076 294.836 282.508C294.242 282.94 293.409 283.156 292.336 283.156C291.201 283.156 290.315 282.977 289.68 282.617V281.414C290.091 281.622 290.531 281.786 291 281.906C291.474 282.026 291.93 282.086 292.367 282.086C293.044 282.086 293.565 281.979 293.93 281.766C294.294 281.547 294.477 281.216 294.477 280.773C294.477 280.44 294.331 280.156 294.039 279.922C293.753 279.682 293.19 279.401 292.352 279.078C291.555 278.781 290.987 278.523 290.648 278.305C290.315 278.081 290.065 277.828 289.898 277.547C289.737 277.266 289.656 276.93 289.656 276.539C289.656 275.841 289.94 275.292 290.508 274.891C291.076 274.484 291.854 274.281 292.844 274.281C293.766 274.281 294.667 274.469 295.547 274.844L295.086 275.898C294.227 275.544 293.448 275.367 292.75 275.367C292.135 275.367 291.672 275.464 291.359 275.656C291.047 275.849 290.891 276.115 290.891 276.453C290.891 276.682 290.948 276.878 291.062 277.039C291.182 277.201 291.372 277.354 291.633 277.5C291.893 277.646 292.393 277.857 293.133 278.133C294.148 278.503 294.833 278.875 295.188 279.25C295.547 279.625 295.727 280.096 295.727 280.664ZM301.461 283.156C300.195 283.156 299.195 282.771 298.461 282C297.732 281.229 297.367 280.159 297.367 278.789C297.367 277.409 297.706 276.312 298.383 275.5C299.065 274.688 299.979 274.281 301.125 274.281C302.198 274.281 303.047 274.635 303.672 275.344C304.297 276.047 304.609 276.977 304.609 278.133V278.953H298.711C298.737 279.958 298.99 280.721 299.469 281.242C299.953 281.763 300.633 282.023 301.508 282.023C302.43 282.023 303.341 281.831 304.242 281.445V282.602C303.784 282.799 303.349 282.94 302.938 283.023C302.531 283.112 302.039 283.156 301.461 283.156ZM301.109 275.367C300.422 275.367 299.872 275.591 299.461 276.039C299.055 276.487 298.815 277.107 298.742 277.898H303.219C303.219 277.081 303.036 276.456 302.672 276.023C302.307 275.586 301.786 275.367 301.109 275.367ZM310.734 274.281C311.115 274.281 311.456 274.312 311.758 274.375L311.578 275.578C311.224 275.5 310.911 275.461 310.641 275.461C309.948 275.461 309.354 275.742 308.859 276.305C308.37 276.867 308.125 277.568 308.125 278.406V283H306.828V274.438H307.898L308.047 276.023H308.109C308.427 275.466 308.81 275.036 309.258 274.734C309.706 274.432 310.198 274.281 310.734 274.281ZM317.57 283H316.305V274.859C316.305 274.182 316.326 273.542 316.367 272.938C316.258 273.047 316.135 273.161 316 273.281C315.865 273.401 315.245 273.909 314.141 274.805L313.453 273.914L316.477 271.578H317.57V283ZM326.852 271.578L322.594 283H321.297L325.555 271.578H326.852ZM332.297 274.281C332.677 274.281 333.018 274.312 333.32 274.375L333.141 275.578C332.786 275.5 332.474 275.461 332.203 275.461C331.51 275.461 330.917 275.742 330.422 276.305C329.932 276.867 329.688 277.568 329.688 278.406V283H328.391V274.438H329.461L329.609 276.023H329.672C329.99 275.466 330.372 275.036 330.82 274.734C331.268 274.432 331.76 274.281 332.297 274.281ZM338.539 283.156C337.273 283.156 336.273 282.771 335.539 282C334.81 281.229 334.445 280.159 334.445 278.789C334.445 277.409 334.784 276.312 335.461 275.5C336.143 274.688 337.057 274.281 338.203 274.281C339.276 274.281 340.125 274.635 340.75 275.344C341.375 276.047 341.688 276.977 341.688 278.133V278.953H335.789C335.815 279.958 336.068 280.721 336.547 281.242C337.031 281.763 337.711 282.023 338.586 282.023C339.508 282.023 340.419 281.831 341.32 281.445V282.602C340.862 282.799 340.427 282.94 340.016 283.023C339.609 283.112 339.117 283.156 338.539 283.156ZM338.188 275.367C337.5 275.367 336.951 275.591 336.539 276.039C336.133 276.487 335.893 277.107 335.82 277.898H340.297C340.297 277.081 340.115 276.456 339.75 276.023C339.385 275.586 338.865 275.367 338.188 275.367ZM347.891 283.156C347.333 283.156 346.823 283.055 346.359 282.852C345.901 282.643 345.516 282.326 345.203 281.898H345.109C345.172 282.398 345.203 282.872 345.203 283.32V286.844H343.906V274.438H344.961L345.141 275.609H345.203C345.536 275.141 345.924 274.802 346.367 274.594C346.81 274.385 347.318 274.281 347.891 274.281C349.026 274.281 349.901 274.669 350.516 275.445C351.135 276.221 351.445 277.31 351.445 278.711C351.445 280.117 351.13 281.211 350.5 281.992C349.875 282.768 349.005 283.156 347.891 283.156ZM347.703 275.383C346.828 275.383 346.195 275.625 345.805 276.109C345.414 276.594 345.214 277.365 345.203 278.422V278.711C345.203 279.914 345.404 280.776 345.805 281.297C346.206 281.812 346.849 282.07 347.734 282.07C348.474 282.07 349.052 281.771 349.469 281.172C349.891 280.573 350.102 279.747 350.102 278.695C350.102 277.628 349.891 276.81 349.469 276.242C349.052 275.669 348.464 275.383 347.703 275.383ZM361.109 278.711C361.109 280.107 360.758 281.198 360.055 281.984C359.352 282.766 358.38 283.156 357.141 283.156C356.375 283.156 355.695 282.977 355.102 282.617C354.508 282.258 354.049 281.742 353.727 281.07C353.404 280.398 353.242 279.612 353.242 278.711C353.242 277.315 353.591 276.229 354.289 275.453C354.987 274.672 355.956 274.281 357.195 274.281C358.393 274.281 359.344 274.68 360.047 275.477C360.755 276.273 361.109 277.352 361.109 278.711ZM354.586 278.711C354.586 279.805 354.805 280.638 355.242 281.211C355.68 281.784 356.323 282.07 357.172 282.07C358.021 282.07 358.664 281.786 359.102 281.219C359.544 280.646 359.766 279.81 359.766 278.711C359.766 277.622 359.544 276.797 359.102 276.234C358.664 275.667 358.016 275.383 357.156 275.383C356.307 275.383 355.667 275.661 355.234 276.219C354.802 276.776 354.586 277.607 354.586 278.711ZM367.602 283H366.336V274.859C366.336 274.182 366.357 273.542 366.398 272.938C366.289 273.047 366.167 273.161 366.031 273.281C365.896 273.401 365.276 273.909 364.172 274.805L363.484 273.914L366.508 271.578H367.602V283Z" fill="#2D2C2C"/>
<path d="M423.594 274.438V279.992C423.594 280.69 423.753 281.211 424.07 281.555C424.388 281.898 424.885 282.07 425.562 282.07C426.458 282.07 427.112 281.826 427.523 281.336C427.94 280.846 428.148 280.047 428.148 278.938V274.438H429.445V283H428.375L428.188 281.852H428.117C427.852 282.273 427.482 282.596 427.008 282.82C426.539 283.044 426.003 283.156 425.398 283.156C424.357 283.156 423.576 282.909 423.055 282.414C422.539 281.919 422.281 281.128 422.281 280.039V274.438H423.594ZM437.727 280.664C437.727 281.461 437.43 282.076 436.836 282.508C436.242 282.94 435.409 283.156 434.336 283.156C433.201 283.156 432.315 282.977 431.68 282.617V281.414C432.091 281.622 432.531 281.786 433 281.906C433.474 282.026 433.93 282.086 434.367 282.086C435.044 282.086 435.565 281.979 435.93 281.766C436.294 281.547 436.477 281.216 436.477 280.773C436.477 280.44 436.331 280.156 436.039 279.922C435.753 279.682 435.19 279.401 434.352 279.078C433.555 278.781 432.987 278.523 432.648 278.305C432.315 278.081 432.065 277.828 431.898 277.547C431.737 277.266 431.656 276.93 431.656 276.539C431.656 275.841 431.94 275.292 432.508 274.891C433.076 274.484 433.854 274.281 434.844 274.281C435.766 274.281 436.667 274.469 437.547 274.844L437.086 275.898C436.227 275.544 435.448 275.367 434.75 275.367C434.135 275.367 433.672 275.464 433.359 275.656C433.047 275.849 432.891 276.115 432.891 276.453C432.891 276.682 432.948 276.878 433.062 277.039C433.182 277.201 433.372 277.354 433.633 277.5C433.893 277.646 434.393 277.857 435.133 278.133C436.148 278.503 436.833 278.875 437.188 279.25C437.547 279.625 437.727 280.096 437.727 280.664ZM443.461 283.156C442.195 283.156 441.195 282.771 440.461 282C439.732 281.229 439.367 280.159 439.367 278.789C439.367 277.409 439.706 276.312 440.383 275.5C441.065 274.688 441.979 274.281 443.125 274.281C444.198 274.281 445.047 274.635 445.672 275.344C446.297 276.047 446.609 276.977 446.609 278.133V278.953H440.711C440.737 279.958 440.99 280.721 441.469 281.242C441.953 281.763 442.633 282.023 443.508 282.023C444.43 282.023 445.341 281.831 446.242 281.445V282.602C445.784 282.799 445.349 282.94 444.938 283.023C444.531 283.112 444.039 283.156 443.461 283.156ZM443.109 275.367C442.422 275.367 441.872 275.591 441.461 276.039C441.055 276.487 440.815 277.107 440.742 277.898H445.219C445.219 277.081 445.036 276.456 444.672 276.023C444.307 275.586 443.786 275.367 443.109 275.367ZM452.734 274.281C453.115 274.281 453.456 274.312 453.758 274.375L453.578 275.578C453.224 275.5 452.911 275.461 452.641 275.461C451.948 275.461 451.354 275.742 450.859 276.305C450.37 276.867 450.125 277.568 450.125 278.406V283H448.828V274.438H449.898L450.047 276.023H450.109C450.427 275.466 450.81 275.036 451.258 274.734C451.706 274.432 452.198 274.281 452.734 274.281ZM462.273 283H454.766V281.883L457.773 278.859C458.69 277.932 459.294 277.271 459.586 276.875C459.878 276.479 460.096 276.094 460.242 275.719C460.388 275.344 460.461 274.94 460.461 274.508C460.461 273.898 460.276 273.417 459.906 273.062C459.536 272.703 459.023 272.523 458.367 272.523C457.893 272.523 457.443 272.602 457.016 272.758C456.594 272.914 456.122 273.198 455.602 273.609L454.914 272.727C455.966 271.852 457.112 271.414 458.352 271.414C459.424 271.414 460.266 271.69 460.875 272.242C461.484 272.789 461.789 273.526 461.789 274.453C461.789 275.177 461.586 275.893 461.18 276.602C460.773 277.31 460.013 278.206 458.898 279.289L456.398 281.734V281.797H462.273V283ZM468.852 271.578L464.594 283H463.297L467.555 271.578H468.852ZM474.297 274.281C474.677 274.281 475.018 274.312 475.32 274.375L475.141 275.578C474.786 275.5 474.474 275.461 474.203 275.461C473.51 275.461 472.917 275.742 472.422 276.305C471.932 276.867 471.688 277.568 471.688 278.406V283H470.391V274.438H471.461L471.609 276.023H471.672C471.99 275.466 472.372 275.036 472.82 274.734C473.268 274.432 473.76 274.281 474.297 274.281ZM480.539 283.156C479.273 283.156 478.273 282.771 477.539 282C476.81 281.229 476.445 280.159 476.445 278.789C476.445 277.409 476.784 276.312 477.461 275.5C478.143 274.688 479.057 274.281 480.203 274.281C481.276 274.281 482.125 274.635 482.75 275.344C483.375 276.047 483.688 276.977 483.688 278.133V278.953H477.789C477.815 279.958 478.068 280.721 478.547 281.242C479.031 281.763 479.711 282.023 480.586 282.023C481.508 282.023 482.419 281.831 483.32 281.445V282.602C482.862 282.799 482.427 282.94 482.016 283.023C481.609 283.112 481.117 283.156 480.539 283.156ZM480.188 275.367C479.5 275.367 478.951 275.591 478.539 276.039C478.133 276.487 477.893 277.107 477.82 277.898H482.297C482.297 277.081 482.115 276.456 481.75 276.023C481.385 275.586 480.865 275.367 480.188 275.367ZM489.891 283.156C489.333 283.156 488.823 283.055 488.359 282.852C487.901 282.643 487.516 282.326 487.203 281.898H487.109C487.172 282.398 487.203 282.872 487.203 283.32V286.844H485.906V274.438H486.961L487.141 275.609H487.203C487.536 275.141 487.924 274.802 488.367 274.594C488.81 274.385 489.318 274.281 489.891 274.281C491.026 274.281 491.901 274.669 492.516 275.445C493.135 276.221 493.445 277.31 493.445 278.711C493.445 280.117 493.13 281.211 492.5 281.992C491.875 282.768 491.005 283.156 489.891 283.156ZM489.703 275.383C488.828 275.383 488.195 275.625 487.805 276.109C487.414 276.594 487.214 277.365 487.203 278.422V278.711C487.203 279.914 487.404 280.776 487.805 281.297C488.206 281.812 488.849 282.07 489.734 282.07C490.474 282.07 491.052 281.771 491.469 281.172C491.891 280.573 492.102 279.747 492.102 278.695C492.102 277.628 491.891 276.81 491.469 276.242C491.052 275.669 490.464 275.383 489.703 275.383ZM503.109 278.711C503.109 280.107 502.758 281.198 502.055 281.984C501.352 282.766 500.38 283.156 499.141 283.156C498.375 283.156 497.695 282.977 497.102 282.617C496.508 282.258 496.049 281.742 495.727 281.07C495.404 280.398 495.242 279.612 495.242 278.711C495.242 277.315 495.591 276.229 496.289 275.453C496.987 274.672 497.956 274.281 499.195 274.281C500.393 274.281 501.344 274.68 502.047 275.477C502.755 276.273 503.109 277.352 503.109 278.711ZM496.586 278.711C496.586 279.805 496.805 280.638 497.242 281.211C497.68 281.784 498.323 282.07 499.172 282.07C500.021 282.07 500.664 281.786 501.102 281.219C501.544 280.646 501.766 279.81 501.766 278.711C501.766 277.622 501.544 276.797 501.102 276.234C500.664 275.667 500.016 275.383 499.156 275.383C498.307 275.383 497.667 275.661 497.234 276.219C496.802 276.776 496.586 277.607 496.586 278.711ZM512.305 283H504.797V281.883L507.805 278.859C508.721 277.932 509.326 277.271 509.617 276.875C509.909 276.479 510.128 276.094 510.273 275.719C510.419 275.344 510.492 274.94 510.492 274.508C510.492 273.898 510.307 273.417 509.938 273.062C509.568 272.703 509.055 272.523 508.398 272.523C507.924 272.523 507.474 272.602 507.047 272.758C506.625 272.914 506.154 273.198 505.633 273.609L504.945 272.727C505.997 271.852 507.143 271.414 508.383 271.414C509.456 271.414 510.297 271.69 510.906 272.242C511.516 272.789 511.82 273.526 511.82 274.453C511.82 275.177 511.617 275.893 511.211 276.602C510.805 277.31 510.044 278.206 508.93 279.289L506.43 281.734V281.797H512.305V283Z" fill="#2D2C2C"/>
<path d="M204.939 225.561C205.525 226.146 206.475 226.146 207.061 225.561L216.607 216.015C217.192 215.429 217.192 214.479 216.607 213.893C216.021 213.308 215.071 213.308 214.485 213.893L206 222.379L197.515 213.893C196.929 213.308 195.979 213.308 195.393 213.893C194.808 214.479 194.808 215.429 195.393 216.015L204.939 225.561ZM204.5 162L204.5 224.5L207.5 224.5L207.5 162L204.5 162Z" fill="#2D2C2C"/>
<path d="M462.767 193.032C456.943 193.612 451.946 195.524 447.504 198.843C445.851 200.077 443.025 202.915 441.804 204.556C438.83 208.566 436.967 213.032 436.227 217.943C435.955 219.781 435.918 224.05 436.165 225.716C436.659 229.072 437.596 232.132 438.966 234.896C440.471 237.931 442.199 240.337 444.629 242.743C449.17 247.271 455.327 250.208 461.829 250.948C463.742 251.17 468.06 251.047 469.923 250.714C475.883 249.653 480.941 247.074 485.272 242.867C488.776 239.461 491.121 235.735 492.626 231.145C494.205 226.382 494.514 221.25 493.539 216.339C492.428 210.762 489.726 205.691 485.729 201.669C481.139 197.054 475.661 194.266 469.183 193.254C468.011 193.081 463.803 192.933 462.767 193.032ZM467.369 200.126C470.121 200.422 472.329 201.076 474.859 202.347C476.956 203.384 478.498 204.469 480.164 206.061C484.285 209.985 486.58 214.809 487 220.411C487.542 227.468 484.618 234.402 479.226 238.918C476.401 241.287 473.106 242.879 469.368 243.693C468.22 243.94 467.727 243.965 465.049 243.965C462.372 243.965 461.878 243.94 460.731 243.693C456.289 242.731 452.785 240.868 449.639 237.82C441.532 229.936 440.73 217.203 447.776 208.319C451.477 203.655 456.758 200.793 463.014 200.065C463.865 199.966 466.259 200.003 467.369 200.126Z" fill="#2D2D2D"/>
<path d="M438.047 247.246C437.257 247.382 436.27 247.937 435.789 248.542C435.419 248.998 434 251.429 434 251.59C434 251.738 437.294 254.575 438.639 255.587C442.439 258.45 447.375 260.88 452.224 262.299C458.677 264.187 465.747 264.631 472.496 263.582C481.059 262.25 488.548 258.721 494.939 253.008L496.42 251.688L495.68 250.356C495.26 249.628 494.668 248.776 494.359 248.456C493.372 247.432 492.028 247.061 490.621 247.419C489.757 247.641 489.128 248.036 487.549 249.356C483.563 252.688 478.184 255.205 472.681 256.315C469.016 257.055 464.414 257.253 460.91 256.821C454.001 255.982 447.585 253.292 442.699 249.208C441.144 247.9 440.848 247.703 440.169 247.456C439.441 247.197 438.75 247.135 438.047 247.246Z" fill="#2D2D2D"/>
<path d="M318.767 192.895C312.943 193.474 307.946 195.387 303.504 198.706C301.851 199.94 299.025 202.778 297.804 204.419C294.83 208.429 292.967 212.895 292.227 217.806C291.955 219.644 291.918 223.913 292.165 225.579C292.659 228.935 293.596 231.995 294.966 234.759C296.471 237.794 298.199 240.2 300.629 242.606C305.17 247.134 311.327 250.071 317.829 250.811C319.742 251.033 324.06 250.91 325.923 250.577C331.883 249.515 336.941 246.937 341.272 242.729C344.776 239.324 347.121 235.598 348.626 231.008C350.205 226.245 350.514 221.112 349.539 216.202C348.428 210.625 345.726 205.554 341.729 201.531C337.139 196.917 331.661 194.128 325.183 193.117C324.011 192.944 319.803 192.796 318.767 192.895ZM323.369 199.989C326.121 200.285 328.329 200.939 330.859 202.21C332.956 203.246 334.498 204.332 336.164 205.924C340.285 209.847 342.58 214.672 343 220.273C343.542 227.331 340.618 234.265 335.226 238.781C332.401 241.15 329.106 242.742 325.368 243.556C324.22 243.803 323.727 243.827 321.049 243.827C318.372 243.827 317.878 243.803 316.731 243.556C312.289 242.594 308.785 240.731 305.639 237.683C297.532 229.799 296.73 217.065 303.776 208.182C307.477 203.518 312.758 200.655 319.014 199.927C319.865 199.829 322.259 199.866 323.369 199.989Z" fill="#2D2D2D"/>
<path d="M294.047 247.109C293.257 247.245 292.27 247.8 291.789 248.405C291.419 248.861 290 251.292 290 251.452C290 251.6 293.294 254.438 294.639 255.45C298.439 258.313 303.375 260.743 308.224 262.162C314.677 264.05 321.747 264.494 328.496 263.445C337.059 262.113 344.548 258.584 350.939 252.871L352.42 251.551L351.68 250.219C351.26 249.491 350.668 248.639 350.359 248.318C349.372 247.294 348.028 246.924 346.621 247.282C345.757 247.504 345.128 247.899 343.549 249.219C339.563 252.55 334.184 255.068 328.681 256.178C325.016 256.918 320.414 257.116 316.91 256.684C310.001 255.845 303.585 253.155 298.699 249.071C297.144 247.763 296.848 247.566 296.169 247.319C295.441 247.06 294.75 246.998 294.047 247.109Z" fill="#2D2D2D"/>
<path d="M202.767 63.0317C196.943 63.6116 191.946 65.5241 187.504 68.8431C185.851 70.0769 183.025 72.9148 181.804 74.5558C178.83 78.5658 176.967 83.0323 176.227 87.943C175.955 89.7814 175.918 94.0505 176.165 95.7162C176.659 99.0722 177.596 102.132 178.966 104.896C180.471 107.931 182.199 110.337 184.629 112.743C189.17 117.271 195.327 120.208 201.829 120.948C203.742 121.17 208.06 121.047 209.923 120.714C215.883 119.653 220.941 117.074 225.272 112.867C228.776 109.461 231.121 105.735 232.626 101.145C234.205 96.3824 234.514 91.2497 233.539 86.339C232.428 80.762 229.726 75.6909 225.729 71.6686C221.139 67.054 215.661 64.2655 209.183 63.2538C208.011 63.0811 203.803 62.933 202.767 63.0317ZM207.369 70.1263C210.121 70.4224 212.329 71.0764 214.859 72.3472C216.956 73.3836 218.498 74.4694 220.164 76.0611C224.285 79.9847 226.58 84.809 227 90.4107C227.542 97.4682 224.618 104.402 219.226 108.918C216.401 111.287 213.106 112.879 209.368 113.693C208.22 113.94 207.727 113.965 205.049 113.965C202.372 113.965 201.878 113.94 200.731 113.693C196.289 112.731 192.785 110.868 189.639 107.82C181.532 99.9359 180.73 87.2027 187.776 78.319C191.477 73.6551 196.758 70.7926 203.014 70.0646C203.865 69.9659 206.259 70.0029 207.369 70.1263Z" fill="#2D2D2D"/>
<path d="M178.047 117.246C177.257 117.382 176.27 117.937 175.789 118.542C175.419 118.998 174 121.429 174 121.59C174 121.738 177.294 124.575 178.639 125.587C182.439 128.45 187.375 130.88 192.224 132.299C198.677 134.187 205.747 134.631 212.496 133.582C221.059 132.25 228.548 128.721 234.939 123.008L236.42 121.688L235.68 120.356C235.26 119.628 234.668 118.776 234.359 118.456C233.372 117.432 232.028 117.061 230.621 117.419C229.757 117.641 229.128 118.036 227.549 119.356C223.563 122.688 218.184 125.205 212.681 126.315C209.016 127.055 204.414 127.253 200.91 126.821C194.001 125.982 187.585 123.292 182.699 119.208C181.144 117.9 180.848 117.703 180.169 117.456C179.441 117.197 178.75 117.135 178.047 117.246Z" fill="#2D2D2D"/>
</svg>
