<svg viewBox="0 0 512 308" fill="none" xmlns="http://www.w3.org/2000/svg">
<path d="M22.5715 24C24.9449 24 27.265 23.2962 29.2384 21.9776C31.2118 20.6591 32.7498 18.7849 33.6581 16.5922C34.5663 14.3995 34.804 11.9867 34.341 9.65892C33.8779 7.33115 32.735 5.19295 31.0568 3.51472C29.3786 1.83649 27.2404 0.693605 24.9126 0.230582C22.5848 -0.232441 20.172 0.0051994 17.9793 0.913451C15.7866 1.8217 13.9125 3.35977 12.5939 5.33316C11.2753 7.30655 10.5715 9.62663 10.5715 12C10.5715 15.1826 11.8358 18.2348 14.0863 20.4853C16.3367 22.7357 19.3889 24 22.5715 24ZM22.5715 3.42858C24.2668 3.42858 25.924 3.93128 27.3336 4.87312C28.7431 5.81496 29.8417 7.15364 30.4905 8.71986C31.1392 10.2861 31.309 12.0095 30.9783 13.6722C30.6475 15.3349 29.8312 16.8622 28.6324 18.0609C27.4337 19.2597 25.9064 20.076 24.2437 20.4067C22.581 20.7375 20.8576 20.5677 19.2914 19.919C17.7252 19.2702 16.3865 18.1716 15.4447 16.762C14.5028 15.3525 14.0001 13.6953 14.0001 12C14.0001 9.72672 14.9032 7.54654 16.5106 5.93909C18.1181 4.33163 20.2982 3.42858 22.5715 3.42858V3.42858Z" fill="#2D2C2C"/>
<path d="M24.2857 27.4285H20.8571C15.8559 27.4285 11.0595 29.4152 7.52313 32.9516C3.98673 36.488 2 41.2844 2 46.2856C2 46.7403 2.18061 47.1763 2.5021 47.4978C2.82359 47.8193 3.25963 47.9999 3.71429 47.9999H41.4286C41.8832 47.9999 42.3193 47.8193 42.6408 47.4978C42.9622 47.1763 43.1429 46.7403 43.1429 46.2856C43.1429 41.2844 41.1561 36.488 37.6197 32.9516C34.0833 29.4152 29.2869 27.4285 24.2857 27.4285ZM5.53143 44.5713C5.95296 40.801 7.74888 37.3182 10.576 34.7883C13.4032 32.2584 17.0633 30.8588 20.8571 30.857H24.2857C28.0795 30.8588 31.7397 32.2584 34.5668 34.7883C37.394 37.3182 39.1899 40.801 39.6114 44.5713H5.53143Z" fill="#2D2C2C"/>
<path d="M205.572 257C207.945 257 210.265 256.296 212.238 254.978C214.212 253.659 215.75 251.785 216.658 249.592C217.566 247.399 217.804 244.987 217.341 242.659C216.878 240.331 215.735 238.193 214.057 236.515C212.379 234.836 210.24 233.694 207.913 233.231C205.585 232.768 203.172 233.005 200.979 233.913C198.787 234.822 196.912 236.36 195.594 238.333C194.275 240.307 193.572 242.627 193.572 245C193.572 248.183 194.836 251.235 197.086 253.485C199.337 255.736 202.389 257 205.572 257ZM205.572 236.429C207.267 236.429 208.924 236.931 210.334 237.873C211.743 238.815 212.842 240.154 213.49 241.72C214.139 243.286 214.309 245.01 213.978 246.672C213.648 248.335 212.831 249.862 211.632 251.061C210.434 252.26 208.906 253.076 207.244 253.407C205.581 253.737 203.858 253.568 202.291 252.919C200.725 252.27 199.386 251.172 198.445 249.762C197.503 248.352 197 246.695 197 245C197 242.727 197.903 240.547 199.511 238.939C201.118 237.332 203.298 236.429 205.572 236.429V236.429Z" fill="#2D2C2C"/>
<path d="M207.286 260.428H203.857C198.856 260.428 194.06 262.415 190.523 265.952C186.987 269.488 185 274.284 185 279.286C185 279.74 185.181 280.176 185.502 280.498C185.824 280.819 186.26 281 186.714 281H224.429C224.883 281 225.319 280.819 225.641 280.498C225.962 280.176 226.143 279.74 226.143 279.286C226.143 274.284 224.156 269.488 220.62 265.952C217.083 262.415 212.287 260.428 207.286 260.428ZM188.531 277.571C188.953 273.801 190.749 270.318 193.576 267.788C196.403 265.258 200.063 263.859 203.857 263.857H207.286C211.08 263.859 214.74 265.258 217.567 267.788C220.394 270.318 222.19 273.801 222.611 277.571H188.531Z" fill="#2D2C2C"/>
<path d="M176.031 66.4994C176.86 66.4823 177.517 65.797 177.5 64.9687L177.22 51.4716C177.203 50.6433 176.518 49.9858 175.69 50.003C174.861 50.0201 174.204 50.7054 174.221 51.5337L174.47 63.5311L162.472 63.7795C161.644 63.7967 160.986 64.482 161.003 65.3103C161.021 66.1385 161.706 66.796 162.534 66.7789L176.031 66.4994ZM52.2502 28.4788C81.1342 23.5972 101.989 23.6619 120.478 29.5465C138.97 35.4321 155.277 47.1962 174.962 66.0821L177.039 63.9174C157.233 44.9147 140.528 32.7796 121.388 26.6878C102.244 20.5949 80.8439 20.6038 51.7503 25.5207L52.2502 28.4788Z" fill="#2D2C2C"/>
<path d="M313.092 188.443C313.889 188.669 314.718 188.206 314.943 187.408L318.62 174.419C318.845 173.622 318.382 172.793 317.585 172.567C316.788 172.341 315.959 172.805 315.733 173.602L312.465 185.148L300.919 181.88C300.122 181.655 299.293 182.118 299.067 182.915C298.841 183.712 299.305 184.541 300.102 184.767L313.092 188.443ZM244.337 115.347C263.157 124.61 275.361 134.241 285.218 145.732C295.109 157.262 302.675 170.703 312.191 187.732L314.81 186.268C305.325 169.296 297.616 155.578 287.495 143.778C277.339 131.939 264.794 122.072 245.662 112.655L244.337 115.347Z" fill="#2D2C2C"/>
<path d="M453.788 188.985C454.608 189.102 455.368 188.533 455.485 187.712L457.397 174.349C457.514 173.529 456.945 172.769 456.125 172.651C455.305 172.534 454.545 173.104 454.427 173.924L452.728 185.803L440.849 184.103C440.029 183.986 439.269 184.555 439.151 185.375C439.034 186.195 439.604 186.955 440.424 187.073L453.788 188.985ZM246.687 101.488C299.917 94.7853 336.032 96.1217 366.489 109.221C396.947 122.321 421.976 147.282 452.8 188.4L455.2 186.6C424.307 145.389 398.886 119.889 367.674 106.465C336.46 93.0402 299.683 91.7911 246.312 98.5115L246.687 101.488Z" fill="#2D2C2C"/>
<path d="M7.20312 67.8516H7.13281C6.53385 68.7214 5.63802 69.1562 4.44531 69.1562C3.32552 69.1562 2.45312 68.7734 1.82812 68.0078C1.20833 67.2422 0.898438 66.1536 0.898438 64.7422C0.898438 63.3307 1.21094 62.2344 1.83594 61.4531C2.46094 60.6719 3.33073 60.2812 4.44531 60.2812C5.60677 60.2812 6.4974 60.7031 7.11719 61.5469H7.21875L7.16406 60.9297L7.13281 60.3281V56.8438H8.42969V69H7.375L7.20312 67.8516ZM4.60938 68.0703C5.49479 68.0703 6.13542 67.8307 6.53125 67.3516C6.93229 66.8672 7.13281 66.0885 7.13281 65.0156V64.7422C7.13281 63.5286 6.92969 62.6641 6.52344 62.1484C6.1224 61.6276 5.47917 61.3672 4.59375 61.3672C3.83333 61.3672 3.25 61.6641 2.84375 62.2578C2.44271 62.8464 2.24219 63.6797 2.24219 64.7578C2.24219 65.8516 2.44271 66.6771 2.84375 67.2344C3.24479 67.7917 3.83333 68.0703 4.60938 68.0703ZM18.5781 64.7109C18.5781 66.1068 18.2266 67.1979 17.5234 67.9844C16.8203 68.7656 15.849 69.1562 14.6094 69.1562C13.8438 69.1562 13.1641 68.9766 12.5703 68.6172C11.9766 68.2578 11.5182 67.7422 11.1953 67.0703C10.8724 66.3984 10.7109 65.612 10.7109 64.7109C10.7109 63.3151 11.0599 62.2292 11.7578 61.4531C12.4557 60.6719 13.4245 60.2812 14.6641 60.2812C15.862 60.2812 16.8125 60.6797 17.5156 61.4766C18.224 62.2734 18.5781 63.3516 18.5781 64.7109ZM12.0547 64.7109C12.0547 65.8047 12.2734 66.638 12.7109 67.2109C13.1484 67.7839 13.7917 68.0703 14.6406 68.0703C15.4896 68.0703 16.1328 67.7865 16.5703 67.2188C17.013 66.6458 17.2344 65.8099 17.2344 64.7109C17.2344 63.6224 17.013 62.7969 16.5703 62.2344C16.1328 61.6667 15.4844 61.3828 14.625 61.3828C13.776 61.3828 13.1354 61.6615 12.7031 62.2188C12.2708 62.776 12.0547 63.6068 12.0547 64.7109ZM26.7188 69V63.4609C26.7188 62.763 26.5599 62.2422 26.2422 61.8984C25.9245 61.5547 25.4271 61.3828 24.75 61.3828C23.8542 61.3828 23.1979 61.625 22.7812 62.1094C22.3646 62.5938 22.1562 63.3932 22.1562 64.5078V69H20.8594V60.4375H21.9141L22.125 61.6094H22.1875C22.4531 61.1875 22.8255 60.862 23.3047 60.6328C23.7839 60.3984 24.3177 60.2812 24.9062 60.2812C25.9375 60.2812 26.7135 60.5312 27.2344 61.0312C27.7552 61.526 28.0156 62.3203 28.0156 63.4141V69H26.7188ZM38.0781 64.7109C38.0781 66.1068 37.7266 67.1979 37.0234 67.9844C36.3203 68.7656 35.349 69.1562 34.1094 69.1562C33.3438 69.1562 32.6641 68.9766 32.0703 68.6172C31.4766 68.2578 31.0182 67.7422 30.6953 67.0703C30.3724 66.3984 30.2109 65.612 30.2109 64.7109C30.2109 63.3151 30.5599 62.2292 31.2578 61.4531C31.9557 60.6719 32.9245 60.2812 34.1641 60.2812C35.362 60.2812 36.3125 60.6797 37.0156 61.4766C37.724 62.2734 38.0781 63.3516 38.0781 64.7109ZM31.5547 64.7109C31.5547 65.8047 31.7734 66.638 32.2109 67.2109C32.6484 67.7839 33.2917 68.0703 34.1406 68.0703C34.9896 68.0703 35.6328 67.7865 36.0703 67.2188C36.513 66.6458 36.7344 65.8099 36.7344 64.7109C36.7344 63.6224 36.513 62.7969 36.0703 62.2344C35.6328 61.6667 34.9844 61.3828 34.125 61.3828C33.276 61.3828 32.6354 61.6615 32.2031 62.2188C31.7708 62.776 31.5547 63.6068 31.5547 64.7109ZM44.2656 60.2812C44.6458 60.2812 44.987 60.3125 45.2891 60.375L45.1094 61.5781C44.7552 61.5 44.4427 61.4609 44.1719 61.4609C43.4792 61.4609 42.8854 61.7422 42.3906 62.3047C41.901 62.8672 41.6562 63.5677 41.6562 64.4062V69H40.3594V60.4375H41.4297L41.5781 62.0234H41.6406C41.9583 61.4661 42.3411 61.0365 42.7891 60.7344C43.237 60.4323 43.7292 60.2812 44.2656 60.2812Z" fill="#2D2C2C"/>
<path d="M191.594 294.438V299.992C191.594 300.69 191.753 301.211 192.07 301.555C192.388 301.898 192.885 302.07 193.562 302.07C194.458 302.07 195.112 301.826 195.523 301.336C195.94 300.846 196.148 300.047 196.148 298.938V294.438H197.445V303H196.375L196.188 301.852H196.117C195.852 302.273 195.482 302.596 195.008 302.82C194.539 303.044 194.003 303.156 193.398 303.156C192.357 303.156 191.576 302.909 191.055 302.414C190.539 301.919 190.281 301.128 190.281 300.039V294.438H191.594ZM205.727 300.664C205.727 301.461 205.43 302.076 204.836 302.508C204.242 302.94 203.409 303.156 202.336 303.156C201.201 303.156 200.315 302.977 199.68 302.617V301.414C200.091 301.622 200.531 301.786 201 301.906C201.474 302.026 201.93 302.086 202.367 302.086C203.044 302.086 203.565 301.979 203.93 301.766C204.294 301.547 204.477 301.216 204.477 300.773C204.477 300.44 204.331 300.156 204.039 299.922C203.753 299.682 203.19 299.401 202.352 299.078C201.555 298.781 200.987 298.523 200.648 298.305C200.315 298.081 200.065 297.828 199.898 297.547C199.737 297.266 199.656 296.93 199.656 296.539C199.656 295.841 199.94 295.292 200.508 294.891C201.076 294.484 201.854 294.281 202.844 294.281C203.766 294.281 204.667 294.469 205.547 294.844L205.086 295.898C204.227 295.544 203.448 295.367 202.75 295.367C202.135 295.367 201.672 295.464 201.359 295.656C201.047 295.849 200.891 296.115 200.891 296.453C200.891 296.682 200.948 296.878 201.062 297.039C201.182 297.201 201.372 297.354 201.633 297.5C201.893 297.646 202.393 297.857 203.133 298.133C204.148 298.503 204.833 298.875 205.188 299.25C205.547 299.625 205.727 300.096 205.727 300.664ZM211.461 303.156C210.195 303.156 209.195 302.771 208.461 302C207.732 301.229 207.367 300.159 207.367 298.789C207.367 297.409 207.706 296.312 208.383 295.5C209.065 294.688 209.979 294.281 211.125 294.281C212.198 294.281 213.047 294.635 213.672 295.344C214.297 296.047 214.609 296.977 214.609 298.133V298.953H208.711C208.737 299.958 208.99 300.721 209.469 301.242C209.953 301.763 210.633 302.023 211.508 302.023C212.43 302.023 213.341 301.831 214.242 301.445V302.602C213.784 302.799 213.349 302.94 212.938 303.023C212.531 303.112 212.039 303.156 211.461 303.156ZM211.109 295.367C210.422 295.367 209.872 295.591 209.461 296.039C209.055 296.487 208.815 297.107 208.742 297.898H213.219C213.219 297.081 213.036 296.456 212.672 296.023C212.307 295.586 211.786 295.367 211.109 295.367ZM220.734 294.281C221.115 294.281 221.456 294.312 221.758 294.375L221.578 295.578C221.224 295.5 220.911 295.461 220.641 295.461C219.948 295.461 219.354 295.742 218.859 296.305C218.37 296.867 218.125 297.568 218.125 298.406V303H216.828V294.438H217.898L218.047 296.023H218.109C218.427 295.466 218.81 295.036 219.258 294.734C219.706 294.432 220.198 294.281 220.734 294.281Z" fill="#2D2C2C"/>
<path d="M109.812 16.474C109.614 17.1539 109.194 17.6418 108.555 17.9378C107.916 18.2288 107.123 18.2981 106.174 18.1458L105.666 19.8855L104.698 19.6029L105.187 17.9306C104.627 17.767 104.097 17.5661 103.597 17.3277C103.098 17.0844 102.704 16.8363 102.415 16.5834L102.756 15.4136C103.117 15.7198 103.55 16.0118 104.055 16.2895C104.566 16.5637 105.044 16.7658 105.489 16.8958L106.453 13.5962C105.523 12.9718 104.914 12.384 104.625 11.8329C104.34 11.2832 104.297 10.6683 104.496 9.98844C104.687 9.33352 105.097 8.86986 105.724 8.59743C106.357 8.32647 107.104 8.26796 107.965 8.4219L108.364 7.05708L109.331 7.33971L108.937 8.68953C109.849 8.98328 110.683 9.42751 111.437 10.0222L110.76 10.8907C110.101 10.3781 109.395 9.98182 108.641 9.70189L107.69 12.9565C108.402 13.4357 108.918 13.8523 109.238 14.2062C109.559 14.5551 109.767 14.9116 109.861 15.2756C109.957 15.6346 109.941 16.034 109.812 16.474ZM108.509 16.199C108.614 15.8391 108.586 15.5162 108.426 15.2305C108.272 14.9413 107.907 14.5932 107.331 14.1863L106.479 17.1034C107.607 17.2704 108.284 16.9689 108.509 16.199ZM105.768 10.3437C105.657 10.7237 105.68 11.0615 105.838 11.3572C105.996 11.6529 106.322 11.9843 106.817 12.3514L107.665 9.44926C107.147 9.38465 106.726 9.43258 106.402 9.59306C106.08 9.74853 105.868 9.99875 105.768 10.3437ZM115.21 21.7055L113.995 21.3506L116.278 13.5366C116.468 12.8867 116.668 12.2776 116.877 11.7094C116.742 11.7837 116.592 11.8594 116.429 11.9364C116.265 12.0134 115.528 12.327 114.217 12.8773L113.806 11.8296L117.364 10.4353L118.413 10.742L115.21 21.7055ZM128.26 19.5521C127.706 21.4469 126.993 22.774 126.12 23.5336C125.252 24.2947 124.203 24.4956 122.973 24.1363C121.793 23.7915 121.035 23.0519 120.699 21.9174C120.365 20.7779 120.468 19.2832 121.008 17.4335C121.566 15.5237 122.278 14.1933 123.143 13.4423C124.008 12.6912 125.05 12.4939 126.27 12.8503C127.46 13.1979 128.222 13.944 128.555 15.0885C128.893 16.2345 128.794 17.7224 128.26 19.5521ZM122.268 17.8016C121.802 19.3963 121.65 20.6135 121.812 21.4529C121.975 22.2874 122.466 22.8244 123.286 23.0639C124.116 23.3064 124.823 23.1142 125.408 22.4874C125.999 21.857 126.525 20.7544 126.985 19.1797C127.445 17.6049 127.594 16.3977 127.432 15.5583C127.277 14.7153 126.785 14.1726 125.955 13.9301C125.135 13.6906 124.432 13.8785 123.845 14.4938C123.26 15.1042 122.734 16.2068 122.268 17.8016ZM137.049 22.1199C136.495 24.0146 135.782 25.3418 134.909 26.1014C134.041 26.8625 132.992 27.0633 131.762 26.704C130.582 26.3593 129.824 25.6197 129.488 24.4852C129.154 23.3456 129.257 21.851 129.797 20.0012C130.355 18.0915 131.067 16.7611 131.932 16.01C132.797 15.259 133.839 15.0616 135.059 15.418C136.249 15.7657 137.01 16.5117 137.343 17.6563C137.681 18.8022 137.583 20.2901 137.049 22.1199ZM131.057 20.3693C130.591 21.9641 130.439 23.1812 130.6 24.0207C130.764 24.8551 131.255 25.3921 132.075 25.6317C132.905 25.8741 133.612 25.682 134.197 25.0551C134.788 24.4248 135.314 23.3222 135.774 21.7474C136.234 20.1726 136.383 18.9655 136.221 18.1261C136.066 17.2831 135.574 16.7403 134.744 16.4979C133.924 16.2583 133.22 16.4462 132.634 17.0616C132.048 17.672 131.523 18.7745 131.057 20.3693Z" fill="#1A980F"/>
<path d="M372.134 100.711C371.803 101.337 371.294 101.731 370.608 101.892C369.924 102.048 369.132 101.956 368.234 101.616L367.386 103.218L366.495 102.746L367.31 101.206C366.795 100.933 366.316 100.63 365.874 100.296C365.435 99.9568 365.099 99.6344 364.866 99.3284L365.437 98.2514C365.728 98.624 366.094 98.9972 366.532 99.3709C366.978 99.7425 367.405 100.037 367.815 100.254L369.424 97.216C368.639 96.4171 368.16 95.7185 367.988 95.1204C367.82 94.5247 367.902 93.9138 368.233 93.2879C368.553 92.6849 369.047 92.3132 369.717 92.1728C370.391 92.0348 371.134 92.128 371.947 92.4522L372.612 91.1957L373.503 91.6673L372.845 92.9101C373.68 93.3816 374.406 93.9846 375.025 94.719L374.187 95.4333C373.645 94.7985 373.033 94.2681 372.351 93.8421L370.764 96.8384C371.365 97.4513 371.786 97.9632 372.028 98.3743C372.273 98.7808 372.405 99.1718 372.424 99.5473C372.445 99.9183 372.349 100.306 372.134 100.711ZM370.913 100.179C371.089 99.8481 371.127 99.5263 371.027 99.2141C370.934 98.8997 370.647 98.4852 370.165 97.9707L368.742 100.656C369.814 101.047 370.538 100.888 370.913 100.179ZM369.407 93.892C369.222 94.2418 369.177 94.5774 369.272 94.8988C369.367 95.2202 369.62 95.6106 370.031 96.0699L371.446 93.398C370.951 93.2304 370.529 93.1925 370.18 93.2845C369.833 93.3719 369.576 93.5744 369.407 93.892ZM378.542 100.18C379.606 100.743 380.301 101.45 380.628 102.301C380.962 103.15 380.887 104.032 380.402 104.948C379.848 105.993 379.081 106.636 378.099 106.876C377.122 107.119 376.049 106.931 374.88 106.311C373.743 105.709 372.971 105.068 372.566 104.387L373.151 103.283C373.363 103.661 373.677 104.036 374.092 104.409C374.51 104.778 374.951 105.085 375.416 105.331C376.226 105.76 376.956 105.902 377.604 105.757C378.258 105.613 378.776 105.181 379.159 104.458C379.905 103.05 379.415 101.888 377.689 100.974C377.251 100.743 376.631 100.5 375.829 100.246L375.436 99.5515L378.317 95.0303L383.336 97.6885L382.777 98.7448L378.738 96.6058L376.877 99.5014C377.463 99.6758 378.018 99.902 378.542 100.18ZM389.584 107.442C388.66 109.186 387.694 110.343 386.686 110.911C385.682 111.482 384.614 111.467 383.482 110.867C382.396 110.292 381.802 109.415 381.702 108.236C381.604 107.052 382.006 105.609 382.908 103.906C383.839 102.148 384.804 100.988 385.802 100.427C386.801 99.8654 387.862 99.8821 388.985 100.477C390.08 101.057 390.676 101.941 390.772 103.129C390.872 104.32 390.476 105.757 389.584 107.442ZM384.067 104.521C383.29 105.989 382.896 107.15 382.885 108.005C382.877 108.855 383.25 109.48 384.005 109.88C384.769 110.285 385.5 110.239 386.199 109.743C386.905 109.244 387.642 108.27 388.41 106.82C389.178 105.371 389.567 104.218 389.578 103.363C389.596 102.506 389.222 101.876 388.458 101.471C387.704 101.071 386.977 101.114 386.278 101.598C385.582 102.078 384.845 103.052 384.067 104.521Z" fill="#1A980F"/>
<path d="M287.653 132.981C287.129 133.458 286.517 133.656 285.817 133.575C285.12 133.49 284.407 133.136 283.677 132.512L282.336 133.731L281.658 132.986L282.946 131.814C282.554 131.382 282.206 130.934 281.903 130.47C281.605 130.003 281.398 129.586 281.282 129.219L282.184 128.399C282.332 128.848 282.549 129.323 282.835 129.823C283.129 130.323 283.432 130.745 283.744 131.088L286.286 128.774C285.818 127.757 285.604 126.937 285.644 126.316C285.688 125.699 285.972 125.152 286.496 124.675C287 124.216 287.591 124.033 288.269 124.128C288.95 124.227 289.618 124.566 290.273 125.146L291.324 124.189L292.003 124.934L290.963 125.881C291.588 126.607 292.068 127.421 292.402 128.321L291.371 128.71C291.076 127.929 290.68 127.223 290.183 126.591L287.675 128.873C288.033 129.653 288.256 130.277 288.344 130.746C288.437 131.211 288.428 131.624 288.319 131.984C288.214 132.34 287.992 132.672 287.653 132.981ZM286.684 132.067C286.961 131.815 287.106 131.525 287.118 131.197C287.137 130.87 287.007 130.382 286.727 129.735L284.48 131.781C285.356 132.511 286.091 132.607 286.684 132.067ZM287.396 125.641C287.103 125.907 286.947 126.208 286.928 126.543C286.908 126.877 287.014 127.33 287.245 127.901L289.481 125.866C289.073 125.541 288.688 125.363 288.328 125.331C287.972 125.296 287.662 125.399 287.396 125.641ZM297.523 136.062C296.984 136.552 296.405 136.802 295.785 136.809C295.169 136.821 294.55 136.602 293.93 136.152L293.884 136.194C294.416 136.949 294.658 137.648 294.609 138.291C294.56 138.934 294.255 139.512 293.692 140.023C292.887 140.756 292.013 141.041 291.069 140.879C290.13 140.713 289.192 140.116 288.256 139.087C287.849 138.64 287.51 138.199 287.24 137.762C286.969 137.332 286.758 136.865 286.609 136.361L287.522 135.53C287.674 136.06 287.889 136.576 288.168 137.076C288.454 137.576 288.765 138.011 289.102 138.38C290.431 139.84 291.667 140.05 292.811 139.009C293.836 138.076 293.615 136.805 292.15 135.195L291.393 134.363L292.219 133.611L292.987 134.454C293.586 135.113 294.206 135.504 294.845 135.626C295.488 135.745 296.068 135.569 296.584 135.099C296.996 134.724 297.19 134.287 297.166 133.788C297.145 133.293 296.914 132.803 296.472 132.318C296.135 131.948 295.768 131.645 295.37 131.409C294.972 131.172 294.447 130.967 293.795 130.793L294.001 129.718C294.59 129.816 295.166 130.02 295.73 130.331C296.302 130.641 296.816 131.047 297.271 131.548C298.018 132.369 298.409 133.178 298.446 133.976C298.486 134.77 298.178 135.466 297.523 136.062ZM301.793 145.222C300.333 146.551 299.032 147.312 297.891 147.505C296.754 147.702 295.754 147.327 294.892 146.379C294.064 145.47 293.803 144.444 294.108 143.3C294.416 142.154 295.283 140.932 296.708 139.635C298.179 138.296 299.48 137.531 300.61 137.341C301.74 137.151 302.732 137.526 303.588 138.465C304.422 139.382 304.683 140.416 304.371 141.566C304.062 142.72 303.203 143.939 301.793 145.222ZM297.591 140.605C296.363 141.724 295.598 142.683 295.299 143.484C295.003 144.281 295.143 144.995 295.718 145.627C296.3 146.267 297.004 146.471 297.829 146.241C298.662 146.011 299.685 145.344 300.899 144.24C302.112 143.135 302.869 142.183 303.168 141.382C303.475 140.582 303.337 139.862 302.756 139.223C302.181 138.591 301.482 138.385 300.661 138.604C299.843 138.82 298.82 139.487 297.591 140.605Z" fill="#1A980F"/>
<path d="M221.094 191.492C221.094 192.201 220.828 192.786 220.297 193.25C219.766 193.708 219.023 193.997 218.07 194.117V195.93H217.062V194.188C216.479 194.188 215.914 194.143 215.367 194.055C214.82 193.961 214.372 193.833 214.023 193.672V192.453C214.456 192.646 214.953 192.805 215.516 192.93C216.083 193.049 216.599 193.109 217.062 193.109V189.672C215.995 189.333 215.245 188.94 214.812 188.492C214.385 188.044 214.172 187.466 214.172 186.758C214.172 186.076 214.435 185.516 214.961 185.078C215.492 184.641 216.193 184.375 217.062 184.281V182.859H218.07V184.266C219.029 184.292 219.953 184.484 220.844 184.844L220.438 185.867C219.661 185.56 218.872 185.378 218.07 185.32V188.711C218.888 188.971 219.5 189.227 219.906 189.477C220.312 189.721 220.612 190.005 220.805 190.328C220.997 190.646 221.094 191.034 221.094 191.492ZM219.766 191.594C219.766 191.219 219.648 190.917 219.414 190.688C219.185 190.453 218.737 190.221 218.07 189.992V193.031C219.201 192.875 219.766 192.396 219.766 191.594ZM215.492 186.742C215.492 187.138 215.609 187.456 215.844 187.695C216.078 187.935 216.484 188.161 217.062 188.375V185.352C216.547 185.435 216.156 185.599 215.891 185.844C215.625 186.083 215.492 186.383 215.492 186.742ZM230.445 195H222.938V193.883L225.945 190.859C226.862 189.932 227.466 189.271 227.758 188.875C228.049 188.479 228.268 188.094 228.414 187.719C228.56 187.344 228.633 186.94 228.633 186.508C228.633 185.898 228.448 185.417 228.078 185.062C227.708 184.703 227.195 184.523 226.539 184.523C226.065 184.523 225.615 184.602 225.188 184.758C224.766 184.914 224.294 185.198 223.773 185.609L223.086 184.727C224.138 183.852 225.284 183.414 226.523 183.414C227.596 183.414 228.438 183.69 229.047 184.242C229.656 184.789 229.961 185.526 229.961 186.453C229.961 187.177 229.758 187.893 229.352 188.602C228.945 189.31 228.185 190.206 227.07 191.289L224.57 193.734V193.797H230.445V195ZM239.664 189.273C239.664 191.247 239.352 192.721 238.727 193.695C238.107 194.669 237.156 195.156 235.875 195.156C234.646 195.156 233.711 194.659 233.07 193.664C232.43 192.664 232.109 191.201 232.109 189.273C232.109 187.284 232.419 185.807 233.039 184.844C233.659 183.88 234.604 183.398 235.875 183.398C237.115 183.398 238.055 183.901 238.695 184.906C239.341 185.911 239.664 187.367 239.664 189.273ZM233.422 189.273C233.422 190.935 233.617 192.146 234.008 192.906C234.398 193.661 235.021 194.039 235.875 194.039C236.74 194.039 237.365 193.656 237.75 192.891C238.141 192.12 238.336 190.914 238.336 189.273C238.336 187.633 238.141 186.432 237.75 185.672C237.365 184.906 236.74 184.523 235.875 184.523C235.021 184.523 234.398 184.901 234.008 185.656C233.617 186.406 233.422 187.612 233.422 189.273Z" fill="#1A980F"/>
<path d="M171.594 144.438V149.992C171.594 150.69 171.753 151.211 172.07 151.555C172.388 151.898 172.885 152.07 173.562 152.07C174.458 152.07 175.112 151.826 175.523 151.336C175.94 150.846 176.148 150.047 176.148 148.938V144.438H177.445V153H176.375L176.188 151.852H176.117C175.852 152.273 175.482 152.596 175.008 152.82C174.539 153.044 174.003 153.156 173.398 153.156C172.357 153.156 171.576 152.909 171.055 152.414C170.539 151.919 170.281 151.128 170.281 150.039V144.438H171.594ZM185.727 150.664C185.727 151.461 185.43 152.076 184.836 152.508C184.242 152.94 183.409 153.156 182.336 153.156C181.201 153.156 180.315 152.977 179.68 152.617V151.414C180.091 151.622 180.531 151.786 181 151.906C181.474 152.026 181.93 152.086 182.367 152.086C183.044 152.086 183.565 151.979 183.93 151.766C184.294 151.547 184.477 151.216 184.477 150.773C184.477 150.44 184.331 150.156 184.039 149.922C183.753 149.682 183.19 149.401 182.352 149.078C181.555 148.781 180.987 148.523 180.648 148.305C180.315 148.081 180.065 147.828 179.898 147.547C179.737 147.266 179.656 146.93 179.656 146.539C179.656 145.841 179.94 145.292 180.508 144.891C181.076 144.484 181.854 144.281 182.844 144.281C183.766 144.281 184.667 144.469 185.547 144.844L185.086 145.898C184.227 145.544 183.448 145.367 182.75 145.367C182.135 145.367 181.672 145.464 181.359 145.656C181.047 145.849 180.891 146.115 180.891 146.453C180.891 146.682 180.948 146.878 181.062 147.039C181.182 147.201 181.372 147.354 181.633 147.5C181.893 147.646 182.393 147.857 183.133 148.133C184.148 148.503 184.833 148.875 185.188 149.25C185.547 149.625 185.727 150.096 185.727 150.664ZM191.461 153.156C190.195 153.156 189.195 152.771 188.461 152C187.732 151.229 187.367 150.159 187.367 148.789C187.367 147.409 187.706 146.312 188.383 145.5C189.065 144.688 189.979 144.281 191.125 144.281C192.198 144.281 193.047 144.635 193.672 145.344C194.297 146.047 194.609 146.977 194.609 148.133V148.953H188.711C188.737 149.958 188.99 150.721 189.469 151.242C189.953 151.763 190.633 152.023 191.508 152.023C192.43 152.023 193.341 151.831 194.242 151.445V152.602C193.784 152.799 193.349 152.94 192.938 153.023C192.531 153.112 192.039 153.156 191.461 153.156ZM191.109 145.367C190.422 145.367 189.872 145.591 189.461 146.039C189.055 146.487 188.815 147.107 188.742 147.898H193.219C193.219 147.081 193.036 146.456 192.672 146.023C192.307 145.586 191.786 145.367 191.109 145.367ZM200.734 144.281C201.115 144.281 201.456 144.312 201.758 144.375L201.578 145.578C201.224 145.5 200.911 145.461 200.641 145.461C199.948 145.461 199.354 145.742 198.859 146.305C198.37 146.867 198.125 147.568 198.125 148.406V153H196.828V144.438H197.898L198.047 146.023H198.109C198.427 145.466 198.81 145.036 199.258 144.734C199.706 144.432 200.198 144.281 200.734 144.281ZM207.695 141.578L203.438 153H202.141L206.398 141.578H207.695ZM213.141 144.281C213.521 144.281 213.862 144.312 214.164 144.375L213.984 145.578C213.63 145.5 213.318 145.461 213.047 145.461C212.354 145.461 211.76 145.742 211.266 146.305C210.776 146.867 210.531 147.568 210.531 148.406V153H209.234V144.438H210.305L210.453 146.023H210.516C210.833 145.466 211.216 145.036 211.664 144.734C212.112 144.432 212.604 144.281 213.141 144.281ZM219.383 153.156C218.117 153.156 217.117 152.771 216.383 152C215.654 151.229 215.289 150.159 215.289 148.789C215.289 147.409 215.628 146.312 216.305 145.5C216.987 144.688 217.901 144.281 219.047 144.281C220.12 144.281 220.969 144.635 221.594 145.344C222.219 146.047 222.531 146.977 222.531 148.133V148.953H216.633C216.659 149.958 216.911 150.721 217.391 151.242C217.875 151.763 218.555 152.023 219.43 152.023C220.352 152.023 221.263 151.831 222.164 151.445V152.602C221.706 152.799 221.271 152.94 220.859 153.023C220.453 153.112 219.961 153.156 219.383 153.156ZM219.031 145.367C218.344 145.367 217.794 145.591 217.383 146.039C216.977 146.487 216.737 147.107 216.664 147.898H221.141C221.141 147.081 220.958 146.456 220.594 146.023C220.229 145.586 219.708 145.367 219.031 145.367ZM228.734 153.156C228.177 153.156 227.667 153.055 227.203 152.852C226.745 152.643 226.359 152.326 226.047 151.898H225.953C226.016 152.398 226.047 152.872 226.047 153.32V156.844H224.75V144.438H225.805L225.984 145.609H226.047C226.38 145.141 226.768 144.802 227.211 144.594C227.654 144.385 228.161 144.281 228.734 144.281C229.87 144.281 230.745 144.669 231.359 145.445C231.979 146.221 232.289 147.31 232.289 148.711C232.289 150.117 231.974 151.211 231.344 151.992C230.719 152.768 229.849 153.156 228.734 153.156ZM228.547 145.383C227.672 145.383 227.039 145.625 226.648 146.109C226.258 146.594 226.057 147.365 226.047 148.422V148.711C226.047 149.914 226.247 150.776 226.648 151.297C227.049 151.812 227.693 152.07 228.578 152.07C229.318 152.07 229.896 151.771 230.312 151.172C230.734 150.573 230.945 149.747 230.945 148.695C230.945 147.628 230.734 146.81 230.312 146.242C229.896 145.669 229.307 145.383 228.547 145.383ZM241.953 148.711C241.953 150.107 241.602 151.198 240.898 151.984C240.195 152.766 239.224 153.156 237.984 153.156C237.219 153.156 236.539 152.977 235.945 152.617C235.352 152.258 234.893 151.742 234.57 151.07C234.247 150.398 234.086 149.612 234.086 148.711C234.086 147.315 234.435 146.229 235.133 145.453C235.831 144.672 236.799 144.281 238.039 144.281C239.237 144.281 240.188 144.68 240.891 145.477C241.599 146.273 241.953 147.352 241.953 148.711ZM235.43 148.711C235.43 149.805 235.648 150.638 236.086 151.211C236.523 151.784 237.167 152.07 238.016 152.07C238.865 152.07 239.508 151.786 239.945 151.219C240.388 150.646 240.609 149.81 240.609 148.711C240.609 147.622 240.388 146.797 239.945 146.234C239.508 145.667 238.859 145.383 238 145.383C237.151 145.383 236.51 145.661 236.078 146.219C235.646 146.776 235.43 147.607 235.43 148.711Z" fill="#2D2C2C"/>
<path d="M276.594 274.438V279.992C276.594 280.69 276.753 281.211 277.07 281.555C277.388 281.898 277.885 282.07 278.562 282.07C279.458 282.07 280.112 281.826 280.523 281.336C280.94 280.846 281.148 280.047 281.148 278.938V274.438H282.445V283H281.375L281.188 281.852H281.117C280.852 282.273 280.482 282.596 280.008 282.82C279.539 283.044 279.003 283.156 278.398 283.156C277.357 283.156 276.576 282.909 276.055 282.414C275.539 281.919 275.281 281.128 275.281 280.039V274.438H276.594ZM290.727 280.664C290.727 281.461 290.43 282.076 289.836 282.508C289.242 282.94 288.409 283.156 287.336 283.156C286.201 283.156 285.315 282.977 284.68 282.617V281.414C285.091 281.622 285.531 281.786 286 281.906C286.474 282.026 286.93 282.086 287.367 282.086C288.044 282.086 288.565 281.979 288.93 281.766C289.294 281.547 289.477 281.216 289.477 280.773C289.477 280.44 289.331 280.156 289.039 279.922C288.753 279.682 288.19 279.401 287.352 279.078C286.555 278.781 285.987 278.523 285.648 278.305C285.315 278.081 285.065 277.828 284.898 277.547C284.737 277.266 284.656 276.93 284.656 276.539C284.656 275.841 284.94 275.292 285.508 274.891C286.076 274.484 286.854 274.281 287.844 274.281C288.766 274.281 289.667 274.469 290.547 274.844L290.086 275.898C289.227 275.544 288.448 275.367 287.75 275.367C287.135 275.367 286.672 275.464 286.359 275.656C286.047 275.849 285.891 276.115 285.891 276.453C285.891 276.682 285.948 276.878 286.062 277.039C286.182 277.201 286.372 277.354 286.633 277.5C286.893 277.646 287.393 277.857 288.133 278.133C289.148 278.503 289.833 278.875 290.188 279.25C290.547 279.625 290.727 280.096 290.727 280.664ZM296.461 283.156C295.195 283.156 294.195 282.771 293.461 282C292.732 281.229 292.367 280.159 292.367 278.789C292.367 277.409 292.706 276.312 293.383 275.5C294.065 274.688 294.979 274.281 296.125 274.281C297.198 274.281 298.047 274.635 298.672 275.344C299.297 276.047 299.609 276.977 299.609 278.133V278.953H293.711C293.737 279.958 293.99 280.721 294.469 281.242C294.953 281.763 295.633 282.023 296.508 282.023C297.43 282.023 298.341 281.831 299.242 281.445V282.602C298.784 282.799 298.349 282.94 297.938 283.023C297.531 283.112 297.039 283.156 296.461 283.156ZM296.109 275.367C295.422 275.367 294.872 275.591 294.461 276.039C294.055 276.487 293.815 277.107 293.742 277.898H298.219C298.219 277.081 298.036 276.456 297.672 276.023C297.307 275.586 296.786 275.367 296.109 275.367ZM305.734 274.281C306.115 274.281 306.456 274.312 306.758 274.375L306.578 275.578C306.224 275.5 305.911 275.461 305.641 275.461C304.948 275.461 304.354 275.742 303.859 276.305C303.37 276.867 303.125 277.568 303.125 278.406V283H301.828V274.438H302.898L303.047 276.023H303.109C303.427 275.466 303.81 275.036 304.258 274.734C304.706 274.432 305.198 274.281 305.734 274.281ZM312.57 283H311.305V274.859C311.305 274.182 311.326 273.542 311.367 272.938C311.258 273.047 311.135 273.161 311 273.281C310.865 273.401 310.245 273.909 309.141 274.805L308.453 273.914L311.477 271.578H312.57V283ZM321.852 271.578L317.594 283H316.297L320.555 271.578H321.852ZM327.297 274.281C327.677 274.281 328.018 274.312 328.32 274.375L328.141 275.578C327.786 275.5 327.474 275.461 327.203 275.461C326.51 275.461 325.917 275.742 325.422 276.305C324.932 276.867 324.688 277.568 324.688 278.406V283H323.391V274.438H324.461L324.609 276.023H324.672C324.99 275.466 325.372 275.036 325.82 274.734C326.268 274.432 326.76 274.281 327.297 274.281ZM333.539 283.156C332.273 283.156 331.273 282.771 330.539 282C329.81 281.229 329.445 280.159 329.445 278.789C329.445 277.409 329.784 276.312 330.461 275.5C331.143 274.688 332.057 274.281 333.203 274.281C334.276 274.281 335.125 274.635 335.75 275.344C336.375 276.047 336.688 276.977 336.688 278.133V278.953H330.789C330.815 279.958 331.068 280.721 331.547 281.242C332.031 281.763 332.711 282.023 333.586 282.023C334.508 282.023 335.419 281.831 336.32 281.445V282.602C335.862 282.799 335.427 282.94 335.016 283.023C334.609 283.112 334.117 283.156 333.539 283.156ZM333.188 275.367C332.5 275.367 331.951 275.591 331.539 276.039C331.133 276.487 330.893 277.107 330.82 277.898H335.297C335.297 277.081 335.115 276.456 334.75 276.023C334.385 275.586 333.865 275.367 333.188 275.367ZM342.891 283.156C342.333 283.156 341.823 283.055 341.359 282.852C340.901 282.643 340.516 282.326 340.203 281.898H340.109C340.172 282.398 340.203 282.872 340.203 283.32V286.844H338.906V274.438H339.961L340.141 275.609H340.203C340.536 275.141 340.924 274.802 341.367 274.594C341.81 274.385 342.318 274.281 342.891 274.281C344.026 274.281 344.901 274.669 345.516 275.445C346.135 276.221 346.445 277.31 346.445 278.711C346.445 280.117 346.13 281.211 345.5 281.992C344.875 282.768 344.005 283.156 342.891 283.156ZM342.703 275.383C341.828 275.383 341.195 275.625 340.805 276.109C340.414 276.594 340.214 277.365 340.203 278.422V278.711C340.203 279.914 340.404 280.776 340.805 281.297C341.206 281.812 341.849 282.07 342.734 282.07C343.474 282.07 344.052 281.771 344.469 281.172C344.891 280.573 345.102 279.747 345.102 278.695C345.102 277.628 344.891 276.81 344.469 276.242C344.052 275.669 343.464 275.383 342.703 275.383ZM356.109 278.711C356.109 280.107 355.758 281.198 355.055 281.984C354.352 282.766 353.38 283.156 352.141 283.156C351.375 283.156 350.695 282.977 350.102 282.617C349.508 282.258 349.049 281.742 348.727 281.07C348.404 280.398 348.242 279.612 348.242 278.711C348.242 277.315 348.591 276.229 349.289 275.453C349.987 274.672 350.956 274.281 352.195 274.281C353.393 274.281 354.344 274.68 355.047 275.477C355.755 276.273 356.109 277.352 356.109 278.711ZM349.586 278.711C349.586 279.805 349.805 280.638 350.242 281.211C350.68 281.784 351.323 282.07 352.172 282.07C353.021 282.07 353.664 281.786 354.102 281.219C354.544 280.646 354.766 279.81 354.766 278.711C354.766 277.622 354.544 276.797 354.102 276.234C353.664 275.667 353.016 275.383 352.156 275.383C351.307 275.383 350.667 275.661 350.234 276.219C349.802 276.776 349.586 277.607 349.586 278.711ZM362.602 283H361.336V274.859C361.336 274.182 361.357 273.542 361.398 272.938C361.289 273.047 361.167 273.161 361.031 273.281C360.896 273.401 360.276 273.909 359.172 274.805L358.484 273.914L361.508 271.578H362.602V283Z" fill="#2D2C2C"/>
<path d="M421.594 274.438V279.992C421.594 280.69 421.753 281.211 422.07 281.555C422.388 281.898 422.885 282.07 423.562 282.07C424.458 282.07 425.112 281.826 425.523 281.336C425.94 280.846 426.148 280.047 426.148 278.938V274.438H427.445V283H426.375L426.188 281.852H426.117C425.852 282.273 425.482 282.596 425.008 282.82C424.539 283.044 424.003 283.156 423.398 283.156C422.357 283.156 421.576 282.909 421.055 282.414C420.539 281.919 420.281 281.128 420.281 280.039V274.438H421.594ZM435.727 280.664C435.727 281.461 435.43 282.076 434.836 282.508C434.242 282.94 433.409 283.156 432.336 283.156C431.201 283.156 430.315 282.977 429.68 282.617V281.414C430.091 281.622 430.531 281.786 431 281.906C431.474 282.026 431.93 282.086 432.367 282.086C433.044 282.086 433.565 281.979 433.93 281.766C434.294 281.547 434.477 281.216 434.477 280.773C434.477 280.44 434.331 280.156 434.039 279.922C433.753 279.682 433.19 279.401 432.352 279.078C431.555 278.781 430.987 278.523 430.648 278.305C430.315 278.081 430.065 277.828 429.898 277.547C429.737 277.266 429.656 276.93 429.656 276.539C429.656 275.841 429.94 275.292 430.508 274.891C431.076 274.484 431.854 274.281 432.844 274.281C433.766 274.281 434.667 274.469 435.547 274.844L435.086 275.898C434.227 275.544 433.448 275.367 432.75 275.367C432.135 275.367 431.672 275.464 431.359 275.656C431.047 275.849 430.891 276.115 430.891 276.453C430.891 276.682 430.948 276.878 431.062 277.039C431.182 277.201 431.372 277.354 431.633 277.5C431.893 277.646 432.393 277.857 433.133 278.133C434.148 278.503 434.833 278.875 435.188 279.25C435.547 279.625 435.727 280.096 435.727 280.664ZM441.461 283.156C440.195 283.156 439.195 282.771 438.461 282C437.732 281.229 437.367 280.159 437.367 278.789C437.367 277.409 437.706 276.312 438.383 275.5C439.065 274.688 439.979 274.281 441.125 274.281C442.198 274.281 443.047 274.635 443.672 275.344C444.297 276.047 444.609 276.977 444.609 278.133V278.953H438.711C438.737 279.958 438.99 280.721 439.469 281.242C439.953 281.763 440.633 282.023 441.508 282.023C442.43 282.023 443.341 281.831 444.242 281.445V282.602C443.784 282.799 443.349 282.94 442.938 283.023C442.531 283.112 442.039 283.156 441.461 283.156ZM441.109 275.367C440.422 275.367 439.872 275.591 439.461 276.039C439.055 276.487 438.815 277.107 438.742 277.898H443.219C443.219 277.081 443.036 276.456 442.672 276.023C442.307 275.586 441.786 275.367 441.109 275.367ZM450.734 274.281C451.115 274.281 451.456 274.312 451.758 274.375L451.578 275.578C451.224 275.5 450.911 275.461 450.641 275.461C449.948 275.461 449.354 275.742 448.859 276.305C448.37 276.867 448.125 277.568 448.125 278.406V283H446.828V274.438H447.898L448.047 276.023H448.109C448.427 275.466 448.81 275.036 449.258 274.734C449.706 274.432 450.198 274.281 450.734 274.281ZM460.273 283H452.766V281.883L455.773 278.859C456.69 277.932 457.294 277.271 457.586 276.875C457.878 276.479 458.096 276.094 458.242 275.719C458.388 275.344 458.461 274.94 458.461 274.508C458.461 273.898 458.276 273.417 457.906 273.062C457.536 272.703 457.023 272.523 456.367 272.523C455.893 272.523 455.443 272.602 455.016 272.758C454.594 272.914 454.122 273.198 453.602 273.609L452.914 272.727C453.966 271.852 455.112 271.414 456.352 271.414C457.424 271.414 458.266 271.69 458.875 272.242C459.484 272.789 459.789 273.526 459.789 274.453C459.789 275.177 459.586 275.893 459.18 276.602C458.773 277.31 458.013 278.206 456.898 279.289L454.398 281.734V281.797H460.273V283ZM466.852 271.578L462.594 283H461.297L465.555 271.578H466.852ZM472.297 274.281C472.677 274.281 473.018 274.312 473.32 274.375L473.141 275.578C472.786 275.5 472.474 275.461 472.203 275.461C471.51 275.461 470.917 275.742 470.422 276.305C469.932 276.867 469.688 277.568 469.688 278.406V283H468.391V274.438H469.461L469.609 276.023H469.672C469.99 275.466 470.372 275.036 470.82 274.734C471.268 274.432 471.76 274.281 472.297 274.281ZM478.539 283.156C477.273 283.156 476.273 282.771 475.539 282C474.81 281.229 474.445 280.159 474.445 278.789C474.445 277.409 474.784 276.312 475.461 275.5C476.143 274.688 477.057 274.281 478.203 274.281C479.276 274.281 480.125 274.635 480.75 275.344C481.375 276.047 481.688 276.977 481.688 278.133V278.953H475.789C475.815 279.958 476.068 280.721 476.547 281.242C477.031 281.763 477.711 282.023 478.586 282.023C479.508 282.023 480.419 281.831 481.32 281.445V282.602C480.862 282.799 480.427 282.94 480.016 283.023C479.609 283.112 479.117 283.156 478.539 283.156ZM478.188 275.367C477.5 275.367 476.951 275.591 476.539 276.039C476.133 276.487 475.893 277.107 475.82 277.898H480.297C480.297 277.081 480.115 276.456 479.75 276.023C479.385 275.586 478.865 275.367 478.188 275.367ZM487.891 283.156C487.333 283.156 486.823 283.055 486.359 282.852C485.901 282.643 485.516 282.326 485.203 281.898H485.109C485.172 282.398 485.203 282.872 485.203 283.32V286.844H483.906V274.438H484.961L485.141 275.609H485.203C485.536 275.141 485.924 274.802 486.367 274.594C486.81 274.385 487.318 274.281 487.891 274.281C489.026 274.281 489.901 274.669 490.516 275.445C491.135 276.221 491.445 277.31 491.445 278.711C491.445 280.117 491.13 281.211 490.5 281.992C489.875 282.768 489.005 283.156 487.891 283.156ZM487.703 275.383C486.828 275.383 486.195 275.625 485.805 276.109C485.414 276.594 485.214 277.365 485.203 278.422V278.711C485.203 279.914 485.404 280.776 485.805 281.297C486.206 281.812 486.849 282.07 487.734 282.07C488.474 282.07 489.052 281.771 489.469 281.172C489.891 280.573 490.102 279.747 490.102 278.695C490.102 277.628 489.891 276.81 489.469 276.242C489.052 275.669 488.464 275.383 487.703 275.383ZM501.109 278.711C501.109 280.107 500.758 281.198 500.055 281.984C499.352 282.766 498.38 283.156 497.141 283.156C496.375 283.156 495.695 282.977 495.102 282.617C494.508 282.258 494.049 281.742 493.727 281.07C493.404 280.398 493.242 279.612 493.242 278.711C493.242 277.315 493.591 276.229 494.289 275.453C494.987 274.672 495.956 274.281 497.195 274.281C498.393 274.281 499.344 274.68 500.047 275.477C500.755 276.273 501.109 277.352 501.109 278.711ZM494.586 278.711C494.586 279.805 494.805 280.638 495.242 281.211C495.68 281.784 496.323 282.07 497.172 282.07C498.021 282.07 498.664 281.786 499.102 281.219C499.544 280.646 499.766 279.81 499.766 278.711C499.766 277.622 499.544 276.797 499.102 276.234C498.664 275.667 498.016 275.383 497.156 275.383C496.307 275.383 495.667 275.661 495.234 276.219C494.802 276.776 494.586 277.607 494.586 278.711ZM510.305 283H502.797V281.883L505.805 278.859C506.721 277.932 507.326 277.271 507.617 276.875C507.909 276.479 508.128 276.094 508.273 275.719C508.419 275.344 508.492 274.94 508.492 274.508C508.492 273.898 508.307 273.417 507.938 273.062C507.568 272.703 507.055 272.523 506.398 272.523C505.924 272.523 505.474 272.602 505.047 272.758C504.625 272.914 504.154 273.198 503.633 273.609L502.945 272.727C503.997 271.852 505.143 271.414 506.383 271.414C507.456 271.414 508.297 271.69 508.906 272.242C509.516 272.789 509.82 273.526 509.82 274.453C509.82 275.177 509.617 275.893 509.211 276.602C508.805 277.31 508.044 278.206 506.93 279.289L504.43 281.734V281.797H510.305V283Z" fill="#2D2C2C"/>
<path d="M204.939 225.561C205.525 226.146 206.475 226.146 207.061 225.561L216.607 216.015C217.192 215.429 217.192 214.479 216.607 213.893C216.021 213.308 215.071 213.308 214.485 213.893L206 222.379L197.515 213.893C196.929 213.308 195.979 213.308 195.393 213.893C194.808 214.479 194.808 215.429 195.393 216.015L204.939 225.561ZM204.5 162L204.5 224.5L207.5 224.5L207.5 162L204.5 162Z" fill="#2D2C2C"/>
<path d="M492.638 247.51C492.72 247.565 492.758 247.626 492.774 247.668C489.822 250.286 486.348 252.476 482.487 254.122C477.264 256.348 471.493 257.51 465.632 257.5C459.77 257.49 454.006 256.308 448.793 254.064C444.941 252.405 441.478 250.205 438.539 247.577C438.556 247.535 438.594 247.473 438.678 247.419C438.747 247.373 438.853 247.334 439.026 247.355C439.212 247.377 439.434 247.468 439.624 247.64C442.543 250.291 445.959 252.471 449.717 254.089C454.681 256.227 460.128 257.335 465.636 257.345C471.145 257.354 476.596 256.264 481.569 254.144C485.336 252.538 488.763 250.37 491.694 247.728C491.884 247.556 492.106 247.467 492.291 247.446C492.464 247.426 492.569 247.465 492.638 247.51Z" stroke="#2D2C2C" stroke-width="7"/>
<path d="M488.5 220.5C488.5 233.203 478.203 243.5 465.5 243.5C452.797 243.5 442.5 233.203 442.5 220.5C442.5 207.797 452.797 197.5 465.5 197.5C478.203 197.5 488.5 207.797 488.5 220.5Z" fill="white" stroke="#2D2C2C" stroke-width="7"/>
<path d="M347.638 247.51C347.72 247.565 347.758 247.626 347.774 247.668C344.822 250.286 341.348 252.476 337.487 254.122C332.264 256.348 326.493 257.51 320.632 257.5C314.77 257.49 309.006 256.308 303.793 254.064C299.941 252.405 296.478 250.205 293.539 247.577C293.556 247.535 293.594 247.473 293.678 247.419C293.747 247.373 293.853 247.334 294.026 247.355C294.212 247.377 294.434 247.468 294.624 247.64C297.543 250.291 300.959 252.471 304.717 254.089C309.681 256.227 315.128 257.335 320.636 257.345C326.145 257.354 331.596 256.264 336.569 254.144C340.336 252.538 343.763 250.37 346.694 247.728C346.884 247.556 347.106 247.467 347.291 247.446C347.464 247.426 347.569 247.465 347.638 247.51Z" stroke="#2D2C2C" stroke-width="7"/>
<path d="M343.5 220.5C343.5 233.203 333.203 243.5 320.5 243.5C307.797 243.5 297.5 233.203 297.5 220.5C297.5 207.797 307.797 197.5 320.5 197.5C333.203 197.5 343.5 207.797 343.5 220.5Z" fill="white" stroke="#2D2C2C" stroke-width="7"/>
<path d="M232.638 117.51C232.72 117.565 232.758 117.626 232.774 117.668C229.822 120.286 226.348 122.476 222.487 124.122C217.264 126.348 211.493 127.51 205.632 127.5C199.77 127.49 194.006 126.308 188.793 124.064C184.941 122.405 181.478 120.205 178.539 117.577C178.556 117.535 178.594 117.473 178.678 117.419C178.747 117.373 178.853 117.334 179.026 117.355C179.212 117.377 179.434 117.468 179.624 117.64C182.543 120.291 185.959 122.471 189.717 124.089C194.681 126.227 200.128 127.335 205.636 127.345C211.145 127.354 216.596 126.264 221.569 124.144C225.336 122.538 228.763 120.37 231.694 117.728C231.884 117.556 232.106 117.467 232.291 117.446C232.464 117.426 232.569 117.465 232.638 117.51Z" stroke="#2D2C2C" stroke-width="7"/>
<path d="M228.5 90.5C228.5 103.203 218.203 113.5 205.5 113.5C192.797 113.5 182.5 103.203 182.5 90.5C182.5 77.7975 192.797 67.5 205.5 67.5C218.203 67.5 228.5 77.7975 228.5 90.5Z" fill="white" stroke="#2D2C2C" stroke-width="7"/>
</svg>
